<svg xmlns:xlink="http://www.w3.org/1999/xlink" class="mr-1" xmlns="http://www.w3.org/2000/svg" width="22" height="22" fill="none"><g clip-path="url(#a)" fill="none"><path fill="#03AFB9" fill-rule="evenodd" d="M3.96 11.548a8.099 8.099 0 0 1 7.088-7.088v.897a.952.952 0 0 0 1.904 0V4.46a8.099 8.099 0 0 1 7.088 7.088h-.421a.952.952 0 0 0 0 1.904h.42a8.099 8.099 0 0 1-7.087 7.088v-1.373a.952.952 0 1 0-1.904 0v1.373a8.099 8.099 0 0 1-7.088-7.088h1.373a.952.952 0 0 0 0-1.904H3.96ZM2 12.5c0 5.523 4.477 10 10 10s10-4.477 10-10-4.477-10-10-10-10 4.477-10 10Zm10.952-3.81a.952.952 0 0 0-1.904 0v3.846c0 .255.102.5.285.68l1.905 1.869a.953.953 0 0 0 1.334-1.36l-1.62-1.589V8.69Z" clip-rule="evenodd"></path></g><defs><clipPath id="a"><path fill="#fff" d="M0 .5h24v24H0z"></path></clipPath></defs></svg>