<svg xmlns="http://www.w3.org/2000/svg" xmlns:xlink="http://www.w3.org/1999/xlink" xml:space="preserve" id="レイヤー_1" x="0" y="0" style="enable-background:new 0 0 68 80" version="1.1" viewBox="0 0 68 80" width="153"  height="180" ><style>.st2{fill:#fff}.st3{fill:#13c4ce}.st4{fill:#3f4f5f}</style><defs><path id="SVGID_1_" d="M-7 0h82v80H-7z"/></defs><clipPath id="SVGID_00000101105569029497369470000006058490348827551158_"><use xlink:href="#SVGID_1_" style="overflow:visible"/></clipPath><g style="clip-path:url(#SVGID_00000101105569029497369470000006058490348827551158_)"><defs><path id="SVGID_00000052065640219308349580000003965499781237054095_" d="M0 0h68v159H0z"/></defs><clipPath id="SVGID_00000073684555492087643230000012565186434519709841_"><use xlink:href="#SVGID_00000052065640219308349580000003965499781237054095_" style="overflow:visible"/></clipPath><g style="clip-path:url(#SVGID_00000073684555492087643230000012565186434519709841_)"><path d="M20.4 27.8v.5c-.4.8-.9 1.7-1.3 2.5 0 .1.1.2.1.4.3 1.4.7 2.7 1 4.1.2.7-.9 1-1.1.3-.1-.3-.1-.6-.2-.9-.2-.9-.4-1.7-.6-2.6V32c-.7.3-1.4.6-2 .9-1.4.7-2.8 1.5-4.1 2.3-1.2.8-2.3 2-2.8 3.4-.3.6-.4 1.4-.6 2.2-.2.9-.5 1.7-.8 2.6-.7 2.1-1.4 4.3-2.2 6.4-.8 2.2-1.5 4.4-2.3 6.5-.6 1.6-1.2 3.2-1.7 4.8-.2.5-.4 1-.5 1.5-.1.3-.1.6-.1.9 0 .2.1.5.2.6.1.3.2.4.4.6.2.2.4.4.6.5.5.4.9.9 1.5 1.3l.1.1s.1.1.2.1c.1.1.2.2.4.3.3.2.6.4.9.7l4.8 3.3c1.6 1.1 3.2 2.1 4.8 3.2.6.4 1.1.8 1.7 1.1.1-.2.2-.3.3-.5.9-1.5 1.9-3 2.8-4.5l1.5-2.4c-.2-.2-.5-.4-.8-.6l-5.3-3.9c-1.1-.8-2.2-1.6-3.3-2.5-.2-.1-.4-.4-.3-.6.2-.5.4-1 .6-1.4.8-2.1 1.7-4.2 2.5-6.2.5-1.3 1-2.6 1.6-3.9.1-.3.3-.4.6-.4h.1c.3.1.5.4.4.7-.2.5-.4 1-.6 1.4-.4.9-.8 1.9-1.1 2.8 1.2-1.7 2.5-3.4 3.7-5.1 1-1.4 2-2.8 3-4.1.2-.3.4-.5.6-.8.2-.3.6-.5 1-.6 0 0-.1 0-.1-.1-.5-.6-1-1.2-1.4-1.7-.6-.7-1.2-1.4-1.7-2.1-.1-.2-.3-.4-.4-.6-.2-.5-.2-1.3.2-1.8.2-.2.4-.3.7-.5.4-.3.8-.5 1.2-.8.6-.4 1.2-.8 1.7-1.2.2-.1.4-.1.6 0-1.6-2.2-2.9-4.3-4.5-6.1zm-5.5 16.5c-.4-1.4-1-2.7-1.8-4-.4-.5-.8-1.1-1.2-1.5l-.6-.6c-.2-.1-.4-.4-.5-.5-.2-.2-.4-.5-.2-.8.1-.2.5-.4.8-.2 1 .8 1.9 1.8 2.6 2.9.9 1.3 1.6 2.8 2 4.3.2.9-.9 1.2-1.1.4z" class="st2"/><path d="M55.2 49.6c-.9.4-1.8.6-2.7.3-.6-.2-1.2-.6-1.7-1-.7-.5-1.2-1.1-1.8-1.7-.7 2.2-1.4 4.4-1.9 6.6-.2.7-1.3.4-1.1-.3.5-2 1-3.9 1.7-5.9-.1.1-.3.2-.4.2-.3 0-.5-.3-.6-.6v-.3c0-.1 0-.3-.1-.4 0-.3-.1-.6-.2-.9-.1-.7-.2-1.3-.4-2-.4-2.1-.9-4.3-1.6-6.4 0-.1-.1-.3-.1-.4 0-.1-.1-.1-.1-.2-.3-.4-.7-.8-1.1-1.1-.6-.5-1.3-.9-2-1.2-.1 0-.1-.1-.2-.1s-.2-.1-.2-.1c-.1-.1-.2-.3-.1-.5-.3-.1-.7-.2-1-.3.5.5 1.1 1 1.6 1.5.2.2.2.5 0 .7 0 .2 0 .3-.2.5l-.8.8s.1 0 .1.1c.6.3 1.1.6 1.3 1.3v.4c-.1 1.5-.2 3-.4 4.5h3.7c.3 0 .6.3.6.6v2c0 .2-.1.3-.2.4-.1.1-.2.2-.4.2h-4c-.1 1.7-.3 3.5-.4 5.2 0 .3-.2.6-.6.6-.3 0-.6-.3-.6-.6.1-.7.1-1.5.2-2.2.1-1 .2-2 .2-3.1H39c-.3 0-.6-.3-.6-.6v-2c0-.3.3-.6.6-.6h1c.1-.7.1-1.4.2-2.1.1-.8.2-1.6.2-2.4 0-.5-.6-.7-1-.8-.4-.2-.8-.4-1.3-.6-.1-.1-.3-.1-.4-.2h-.1c-.3-.1-.5-.4-.4-.7.1-.3.4-.5.7-.4.3.1.7.3 1 .4.2-.1.3-.2.5-.3l.6-.6c-.3-.3-.6-.6-.9-.8-1-.9-1.9-1.7-2.9-2.6-.5-.4-.9-.8-1.4-1.2-.2-.2-.4-.3-.6-.5h-.1l-.1-.1c-.1-.1-.2-.1-.2-.2-.2-.2-.4-.5-.2-.8 0-.1.1-.1.2-.2l-.2-.2-.3 3.6c0 .7-1.2.7-1.1 0 .1-1.6.3-3.2.4-4.8-.7.5-1.4.9-2.2 1.1-1.6.4-3.3.1-4.8-.6-1.2-.6-2.2-1.5-3-2.6-.1.7-.2 1.3-.3 2 0 .2-.1.3-.3.3.6.7 1.1 1.5 1.7 2.3.9 1.4 1.8 2.9 2.5 4.4.1 0 .2 0 .2.1.3.2.5.4.8.6 1.7 1.2 3.5 2.5 5.2 3.7.5-1.1 1.1-2.1 1.6-3.2.2-.5.8-.3 1 .1-.1-.5-.3-.9-.4-1.4-.1-.2-.2-.5-.3-.7 0 0 0-.1-.1-.1 0-.1-.1-.2-.1-.3l-.3-.6c0-.1-.1-.1-.1-.2l-.1-.1c-.2-.2-.2-.6 0-.8.2-.2.6-.2.8 0 .6.8 1 1.8 1.4 2.8.8 2.3 1.2 4.8 1.6 7.3.4 2.4.6 4.7.8 7.1 0 .1 0 .2-.1.3.1.9.2 1.7.2 2.6.1.1.2.2.4.3.3.2.6.4.6.8 0 .3-.1.5-.3.7.6.5 1.3.9 1.9 1.4.9.6 1.8 1.3 2.7 1.9.6.4.8 1.2.4 1.8-.1.1-.1.2-.2.2-.3.4-.6.8-.9 1.3-1.1 1.6-2.3 3.2-3.4 4.8-1.5 2.1-3.1 4.3-4.6 6.4-.1.1-.1.2-.2.2.4 0 .8.1 1.1.3.4.3.7.7.7 1.2 0 1-1 1.5-1.9 1.6h-.4c.2.2.4.3.6.5.4.3.8.7.8 1.3 0 .6-.3 1.1-.7 1.5-.4.3-.9.3-1.3.2 0 .3-.1.7-.3 1-.3.4-.7.7-1.2.8.1.4 0 .8-.3 1.2-.4.5-.9.7-1.5.7 0 .2 0 .5-.2.8-.2.5-.7.8-1.2.8-.5.1-.9-.1-1.4-.4-.3-.1-.6-.3-.8-.4l-.1.1c-.3.4-.6.8-.9 1.3-.1.1-.1.2-.2.3-.4.6-1.2.8-1.8.4-.2-.2-.5-.3-.7-.5-1.6-1.1-3.1-2.2-4.7-3.4-2.2-1.6-4.4-3.1-6.5-4.7l-.9-.6v1.8c.3-.1.7.1.7.5V81.5c0 2.8-.1 5.6-.1 8.3-.1 3.7-.1 7.3-.2 11l-.3 11.8-.3 10.2h5.4c3.7 0 7.3-.1 11-.2 1.6 0 3.2-.1 4.8-.1 0-.5.1-1.1.1-1.6.2-3.2.5-6.3.7-9.5.2-2 .3-4 .5-6 0-.3.2-.6.6-.6.3 0 .6.3.6.6-.1.7-.1 1.5-.2 2.2-.2 3.2-.5 6.3-.7 9.5-.1 2-.3 3.9-.4 5.9l1 .1c0-.3.2-.6.5-.6h1.5c2.2.1 4.4.1 6.5.2 1.2 0 2.3.1 3.5.1V86.9c0-1.4-.1-2.7-.2-4-.3-4.1-1-8.2-1.5-12.2-.2-1.7-.5-3.5-.6-5.2-.1-1.4-.2-2.8-.1-4.2 0-.3.2-.6.6-.6.2 0 .4.1.5.3.3.1.6.3.8.4.1-.2.3-.4.6-.4.2 0 .3.1.4.1.1.1.2.3.2.4 0 .2.1.5.2.8.1.5.3.9.6 1.3 0 .1.1.1.1.2s0 0 .1.1.1.2.2.2l.2.2.1.1c.2.1.4.2.5.3.1 0 .1.1.2.1h.1c.1 0 .2.1.3.1.2.1.4.1.6.2H51.2c.1 0 .2 0 .3-.1.2-.1.4-.1.6-.2h.1s.1 0 .1-.1c.1 0 .2-.1.3-.2.1-.1.2-.1.3-.2 0 0 .1 0 .1-.1l.1-.1c.2-.1.3-.3.4-.4l.1-.1v-.1c.1-.1.1-.2.2-.3.1-.1.1-.2.2-.3 0 0 0-.1.1-.1v-.1c.2-.7.4-1.4.5-2.1.2-1 .4-1.9.6-2.9.4-2.1.7-4.2 1.1-6.3.1-.7.2-1.5.4-2.2V49c-.8.3-1.2.4-1.5.6zM34.9 92.3c-.7 0-.7-1.1 0-1.1.7-.1.7 1.1 0 1.1zm0-10c-.7 0-.7-1.1 0-1.1s.7 1.1 0 1.1z" class="st2"/><path d="M37.4 18.6c-.1 0-.1 0 0 0z" class="st3"/><path d="M29.5 44.6c-.3.1-.6-.1-.7-.4l-1.5-3.9c-.8-2-1.6-4-2.6-6 0 .2-.1.3-.3.5-.2.1-.4.3-.6.4-.7.5-1.5 1.1-2.2 1.6-.2.1-.3.2-.5.3v.6c.1.1.2.2.3.4l3 3.6c.2.2.2.6 0 .8-.1.1-.1.1-.2.1.1 0 .2.1.3.1.1 0 .2.1.2.2 1.2.9 2.5 1.8 3.7 2.7.2.1.3.2.5.3l.3-.3c.2-.2.4-.2.6-.2 0-.2-.1-.5-.3-.8.1 0 .1 0 0 0z" class="st2"/><path d="M32.2 12.4c.1 0 .1 0 0 0zM32.3 12.4zM32.6 12.4zM29.8 15.8c0 .1 0 0 0 0zM31.9 12.5c0-.1 0 0 0 0zM21.1 37.2s0-.1 0 0c0-.1 0-.1 0 0 0-.1 0 0 0 0zM21.2 37.1zM32.6 12.4zM31.8 12.5zM47.6 47.7s0-.1 0 0c0-.1 0-.1 0 0z" class="st3"/><path d="M56 48c-.3-.1-.5-.4-.4-.7.2-1.3.5-2.5.7-3.8 0-.2 0-.4.2-.6.1-.1.2-.1.3-.2.4-.3.8-.6 1.1-.9 1.4-1 2.7-2.1 4.1-3.1.4-.3.7-.6 1.1-.8.3-.2.6-.5.9-.7.3-.2.6-.4.8-.7.2-.1.6-.4.6-.6l-.1-.1h-.1c-.2 0-.4 0-.5.1-.6.2-1.1.7-1.6 1-.8.5-1.6.9-2.4 1.3-.1.2-.3.3-.6.3-.3-.1-.5-.1-.8-.1h-.9c-.7 0-1.3.1-2 .3-.6.1-1.3.3-1.9.6-.3.1-.5.3-.8.4-.3.2-.4.3-.6.5-.5.5-1.3-.3-.8-.8 1-1 2.5-1.5 3.8-1.8 1.2-.3 2.6-.5 3.9-.2l2.1-1.2c.9-.6 1.8-1.5 3-1.5.2 0 .4 0 .6.1 0-.1.1-.1.1-.2.1-.1.3-.2.4-.3h.1c.1 0 .1-.1.2-.1l.2-.2.1-.1c0-.1.1-.1.1-.2l-.1-.1h-.2s-.1 0-.1.1c-.1.1-.2.1-.4.2-1.4.8-2.9 1.5-4.3 2.3-.6.3-1.2-.6-.6-1l.6-.3c1.4-.7 2.7-1.5 4.1-2.2.1-.1.2-.2.2-.3.1-.1.1-.1.1-.2-.1 0-.1-.1-.2-.1-.3 0-.5.1-.8.3-.3.1-.5.3-.8.4-1.5.8-3 1.7-4.6 2.5-.6.4-1.2-.6-.6-1 1.4-.8 2.7-1.5 4.1-2.3h-.2c-.4 0-.7.1-1 .3-.4.2-.9.5-1.3.8-.6.4-1.2.7-1.8 1.1-.7.4-1.4.8-2 1.2-.6.4-1.3.7-1.9 1.2-.2.2-.6 0-.8-.2-.2-.3 0-.6.2-.8.4-.3.8-.6 1.2-.8.2-.5.4-1 .5-1.6 0-.2.1-.4.1-.6V32.3c-.1-.1-.2-.2-.3-.2-.2 0-.3.1-.4.2-.2.3-.2.6-.3.9-.2.7-.5 1.4-.8 2-.3.5-.8.9-1.2 1.3-.6.5-1.1 1-1.5 1.6-.4.7-.6 1.4-.6 2.2 0 .3 0 .5.1.8v.4c0 .1 0 .2-.1.3-.1.4-.2.9-.3 1.3-.2.7-.4 1.5-.6 2.2-.1.5-.7.5-1 .2l-.3.3c.1 0 .2.1.2.1.7.8 1.5 1.6 2.3 2.2.3.2.5.4.8.5l.2.1h.1c.1 0 .2.1.3.1h.7c.1 0 .2 0 .3-.1.8-.2 1.6-.7 2.4-.9 0 .2-.2.2-.3.2z" class="st2"/><path d="M41.1 30.6c-.2-.8-.7-1.5-1.2-2.2-.5-.8-.9-1.5-1.3-2.4-.7-1.7-1.3-3.4-1.5-5.3-.3.2-.5.4-.9.4-.4 1.7-1 3.3-2.1 4.7-.1.2-.3.4-.5.5v.1c-.1.8-.1 1.5-.2 2.3.1 0 .1.1.2.2.2-.1.4-.1.6 0 .5.3.9.7 1.4 1.1 1.3 1.1 2.6 2.2 3.8 3.3.3.1.7.2 1 .3 0-.1.1-.2.1-.3.7-.8.9-1.8.6-2.7zM20.6 14.2c.2.1.3.3.3.5.4-.5.9-.8 1.3-1.2-.6.1-1.1.1-1.7.2-.7 0-.7-1.1 0-1.1.8 0 1.7-.2 2.5-.4 3.2-.8 6.3-2.6 8.5-5.2.2-.2.6-.2.8 0 .1.1.1.2.2.3.5.2.9.6 1.1 1h.2c.3 0 .5.3.6.6V9c0 .1 0 .2.1.3.1.2.1.4.2.6l.6 1.2c.5.8 1 1.4 1.6 2.1.3.3.2.7-.1.8.1.5.2 1 .6 1.4.6-.1 1.1.4 1.3.9.1-.3.2-.6.2-.9-.1.1-.2.2-.4.2-.3 0-.6-.3-.6-.6.1-1 .2-2.1.2-3.1 0-1.6-.2-3.2-.6-4.7-.2-.6-.4-1.1-.7-1.6-.1-.1-.1-.2-.2-.3v-.1l-.1-.1-.2-.2s-.1 0-.1-.1c-.3-.2-.3-.4-.2-.7-.1-.1-.1-.3-.2-.4 0 .1-.1.1-.2.2-.2.1-.6.1-.8-.2-.3-.6-.8-1.1-1.4-1.4-.7-.4-1.4-.7-2.2-.9-1.4-.3-2.9-.4-4.2-.1-1.7.4-3.4 1.3-4.6 2.7-1.1 1.2-1.7 2.8-2.2 4.4-.5 1.7-.7 3.4-.8 5.1 0 .4-.3.6-.6.5v.3c.5-.4 1.2-.6 1.8-.1z" class="st3"/><path d="M37.7 16.9s-.1-.2 0-.1c0-.1-.1-.2-.1-.2-.3.1-.6-.1-.7-.4-.1-.3.1-.6.4-.7h.2c-.4-.4-.5-.9-.6-1.4-.2.1-.5.2-.7 0-.7-.7-1.3-1.5-1.8-2.4-.5-.9-1-1.8-1.1-2.8 0-.2.2-.5.4-.5-.3-.4-.7-.8-1.1-1 0 .2 0 .3-.2.5-.7.8-1.4 1.4-2.2 2.1-2.3 1.8-5 3.2-7.9 3.6-.4.4-.9.7-1.3 1.2 0 .1 0 .2-.1.2 0 .1-.1.1-.2.2v.1c0 .1 0 0 0 0-.2.1-.4.1-.5 0-.2-.1-.3-.1-.5 0s-.3.4-.4.6c-.2.5-.2 1-.1 1.5.2 1 .7 2 1.7 2.4.2 0 .4.1.4.4.4 1.5 1 3 1.9 4.3.8 1.2 1.9 2.2 3.3 2.8 1.3.6 2.8.6 4.2.2 1.3-.5 2.4-1.5 3.2-2.7.9-1.3 1.3-2.8 1.6-4.3.1-.4.6-.5.9-.3.1 0 .1-.1.2-.1 0 0 .1 0 .1-.1l.1-.1c.1-.1.2-.2.2-.3 0 0 0-.1.1-.1l.1-.1c.1-.1.1-.2.2-.3.1-.1.1-.2.2-.3v-.1c0-.1 0-.1.1-.2.1-.2.2-.5.2-.7 0-.1 0-.2.1-.3V17.2c-.3-.1-.3-.2-.3-.3zm-9.6 2.2c0-.1.1-.1.1-.2.1-.1.1-.1.2-.1s.1-.1.2 0h.6c.1 0 .2 0 .3.1l.1.1c.1.1.1.2.1.2V19.5c0 .1-.1.1-.1.2-.1.1-.1.1-.2.1s-.1.1-.2 0h-.6c-.1 0-.2 0-.3-.1l-.1-.1c-.1-.1-.1-.2-.1-.2V19.1zm-2.4-3.8c-.7 0-.7-1.1 0-1.1s.7 1.1 0 1.1zM31 23c-1.4.8-3.3.6-4.5-.4-.2-.2-.2-.6 0-.8.2-.2.6-.2.8 0l.1.1h.1c.1 0 .1.1.2.1s.1.1.2.1h.1c.2.1.3.1.5.1h1.2c.1 0 .3-.1.4-.1h.1c.1 0 .1-.1.2-.1.3-.1.6-.1.8.2.1.3 0 .6-.2.8zm1.4-7.3c-.7 0-.7-1.1 0-1.1s.7 1.1 0 1.1z" class="st2"/><path d="M20.6 15.2s0 .1 0 0zM34.9 36.3c-.6 1.2-1.3 2.5-1.9 3.7-.1.3-.5.4-.8.2-.3-.2-.5-.4-.8-.6-1.5-1.1-3-2.1-4.5-3.2 1.1 2.5 2 5 3 7.5.1.3-.1.6-.3.7.1.3.2.6.2.9.1 0 .3.1.4.1.6.4 1.1.8 1.6 1.2 2 1.4 4 2.9 5.9 4.3.2.1.3.2.5.4-.1-.8-.1-1.7-.2-2.6-.1.2-.3.3-.5.3-.3 0-.5-.3-.6-.6-.1-1.2-.2-2.4-.4-3.6-.3-2.5-.7-4.9-1.2-7.4-.1-.6-.3-1.2-.5-1.9.2.2.2.4.1.6zM20.2 20.6s-.1 0 0 0c-.7-.3-1.2-.8-1.6-1.5-.5 1.1-1.4 2-2.1 2.9-.9 1.1-2 2.5-1.8 4.1.1.8.5 1.5.7 2.2.2.8-.1 1.5-.5 2.2-.6.9-1.4 1.5-2.2 2.3-.4.4-.8.8-1.2 1.3-.1.2-.3.4-.4.6 0 0 0 .1-.1.1.9-.7 1.9-1.3 2.9-1.9 1.4-.8 2.8-1.5 4.3-2.1-.1-.3.1-.6.3-.8.1-.3.3-.5.4-.8.3-.5.5-1 .8-1.6.2-.3.5-.3.7-.2v-.1c-.5-.5.3-1.3.8-.8l.2.2v-.1c.1-.9.3-1.8.4-2.7-.9-1-1.3-2.1-1.6-3.3zM24 43.8c-.1-.1-.1-.1-.2 0-.6.9-1.3 1.8-1.9 2.6L18 51.8c-1.4 1.9-2.8 3.9-4.2 5.8-.3.9-.7 1.7-1 2.6.3.2.5.4.8.6 1.8 1.3 3.5 2.6 5.3 3.9 1.1.8 2.2 1.6 3.3 2.5.1.1.2.2.2.3l2.1 1.2c.3.1.5.3.8.4h.1c.1 0 .1 0 .2.1.1 0 .2.1.3.1.1 0 .2 0 .3.1h.1c.4 0 .9-.2 1.3-.4.4-.1.7-.3 1.1-.3.4 0 .7 0 1.1.1.4.1.8.3 1.2.5.4.3.8.6 1.1 1 .4.4.8.7 1.2.9.9-1.3 1.9-2.6 2.8-3.9 1.4-1.9 2.7-3.8 4.1-5.7l2.4-3.3c.1-.1.1-.2.2-.3.1-.1 0-.1 0-.2-.3-.2-.6-.4-.8-.6-1.3-.9-2.6-1.8-3.8-2.8-.1.2-.2.3-.3.5-.2.3-.6.5-.9.4-.1 0-.2 0-.2-.1-.1 0-.1-.1-.1-.1-1.7-1.2-3.3-2.4-5-3.6-.9-.7-1.8-1.3-2.7-2-.2-.2-.5-.3-.7-.5l-.1-.1c-.4-.3-.5-.7-.2-1.1.1-.2.3-.4.4-.6-.9-.7-1.8-1.3-2.7-2-.5-.3-.9-.7-1.4-1-.2-.3-.2-.3-.3-.4zM25.5 81.7c-.6-.3-1.1-.6-1.5-1.1-.7-.8-1.5-1.5-2.3-2.2-.9-.8-1.8-1.7-2.8-2.5-.1-.1-.2-.2-.3-.2l-.1-.1-.1-.1c-.2-.1-.3-.2-.5-.3h-.1c-.3.4-.5.8-.8 1.2-.2.2-.5.4-.8.2-.1 0-.1-.1-.2-.1-1-.7-2.1-1.4-3.1-2.1-1.7-1.1-3.4-2.3-5.1-3.4-.9-.6-1.7-1.2-2.5-1.8v.1s0 .1-.1.1c0 .1 0 .1.1.2s.2.1.2.2c1.3.9 2.6 1.9 3.9 2.8 2.1 1.5 4.2 3.1 6.3 4.6 2 1.4 3.9 2.8 5.8 4.2.9.6 1.7 1.3 2.6 1.9.1.1.1 0 .2 0v-.1c.1-.1.1-.2.2-.3.3-.4.6-.8.8-1.1.3-.1.3-.1.2-.1zM43 57.5c-.1 0 0 0 0 0zM5.4 69.6s-.1-.1 0 0z" class="st3"/><path d="M30 46.5s0 .1 0 0c.1 0 .1-.1 0 0zM37.4 53.9zM28.8 47.7s0 .1 0 0c0 0-.2-.1 0 0zM38.2 52.8s.2.1 0 0zM29.4 47.3c-.1.2-.3.4-.4.6.2.2.5.4.8.5 1.6 1.1 3.1 2.2 4.7 3.4.9.7 1.8 1.3 2.7 2 .1-.2.3-.4.4-.6.1-.2.3-.4.4-.6-.2-.2-.5-.4-.8-.5-1.6-1.1-3.1-2.3-4.7-3.4l-2.1-1.5c-.2-.1-.4-.3-.6-.4-.1.1-.2.3-.4.5z" class="st2"/><path d="M36.6 45c.1 1.2.3 2.4.4 3.6 0 .3.2.6.6.6.2 0 .4-.1.5-.3 0-.1.1-.2.1-.3-.2-2.4-.5-4.8-.8-7.1-.4-2.4-.8-4.9-1.6-7.3-.3-1-.7-2-1.4-2.8-.2-.2-.6-.2-.8 0-.2.2-.2.6 0 .8l.1.1c0 .1.1.1.1.2l.3.6c0 .1.1.2.1.3 0 0 0 .1.1.1.1.2.2.5.3.7.2.5.3.9.4 1.4.2.6.3 1.2.5 1.9.5 2.5.8 5 1.1 7.5z" class="st4"/><path d="M44.9 43h-3.7c.1-1.5.2-3 .4-4.5v-.4c-.2-.7-.7-1-1.3-1.3 0 0-.1 0-.1-.1.3-.2.6-.5.8-.8.1-.1.2-.3.2-.5.2-.2.2-.5 0-.7-.5-.5-1-1-1.6-1.5-.2 0-.3-.1-.5-.1.2 0 .3.1.5.1-1.4-1.1-2.6-2.2-3.9-3.2-.4-.4-.9-.7-1.4-1.1-.2-.1-.4-.1-.6 0 .4.4.7.9 1.2 1-.5-.2-.7-.7-1.2-1l-.2.2c-.2.3 0 .6.2.8.1.1.2.1.2.2l.1.1h.1c.2.2.4.3.6.5.5.4.9.8 1.4 1.2 1 .8 2 1.7 2.9 2.6.3.3.6.6.9.8l-.6.6c-.1.1-.3.2-.5.3-.3-.1-.7-.3-1-.4-.3-.1-.6.1-.7.4-.1.3.1.6.4.7h.1c.1.1.3.1.4.2.4.2.8.4 1.3.6.4.2 1 .3 1 .8 0 .8-.1 1.6-.2 2.4-.1.7-.1 1.4-.2 2.1H39c-.3 0-.6.3-.6.6v2c0 .3.3.6.6.6h.8c-.1 1-.2 2-.2 3.1-.1.7-.1 1.5-.2 2.2 0 .3.3.6.6.6s.5-.3.6-.6c.1-1.7.3-3.5.4-5.2h4c.2 0 .3-.1.4-.2.1-.1.2-.2.2-.4v-2c-.2-.4-.4-.7-.7-.7zm-.6 2h-4.8v-.9h4.8v.9z" class="st4"/><path d="M34.4 76.2c0-.1 0 0 0 0zM33.3 72.3c-.4-.2-.8-.4-1.2-.7-.7-.5-1.2-1.3-2-1.6-.6-.3-1.2-.3-1.7-.1-.7.2-1.4.6-2.2.6-.5 0-.9-.2-1.4-.4-.5-.2-1-.5-1.5-.7-.4-.2-.9-.5-1.3-.7-.1.1-.2.3-.3.4-.9 1.5-1.9 3-2.8 4.5-.1.2-.3.4-.4.7.4.2.7.5 1 .7 1.7 1.4 3.4 2.9 4.9 4.5.3.3.5.6.8.8.6.4 1.3.6 2 .9.3.1.6.3.9.5.2.1.5.3.7.2.1-.1.2-.1.2-.2s0-.2-.1-.3l-.3-.3-.1-.1c-.6-.4-.1-1.3.6-1 .4.2 1.2.7 1.6.2.1-.1.2-.3.1-.4 0-.1-.2-.2-.3-.3-.1-.1-.3-.3-.5-.4h-.2c-.2-.2-.4-.5-.2-.8.1-.2.5-.4.8-.2.3.2.6.4 1 .5H31.7c.1 0 .2-.1.3-.2.1-.1.1-.3.1-.4 0-.1-.2-.3-.3-.4-.2-.2-.5-.4-.7-.7-.5-.4.1-1.2.7-.9.2.1.5.3.7.4l.6.3c.2.1.3.1.5.2h.2l.3-.3v-.2s0-.1-.1-.1l-.2-.2c-.6-.5-1.2-.9-1.7-1.4-.8-.7-1.6-1.3-2.4-2-.2-.2-.2-.6 0-.8.2-.2.6-.2.8 0 .5.4.9.8 1.4 1.1.1 0 .1.1.2.1.8.2 1.6.5 2.4.3.1 0 .3-.1.4-.2.1-.1.2-.1.1-.2-.1-.3-.5-.3-.7-.3-.2-.3-.6-.3-1-.4z" class="st2"/><path d="M35.7 3.2C35 1.8 33.5 1 32.1.5c-1.5-.5-3.2-.7-4.8-.4-1.8.3-3.7 1.2-5 2.4-1.4 1.3-2.3 2.9-2.9 4.7-.6 2-1 4.1-1.1 6.2 0 .3.2.5.5.5s.6-.1.6-.5c0-1.7.3-3.5.8-5.1.4-1.6 1-3.2 2.2-4.4 1.2-1.3 2.9-2.2 4.6-2.7 1.3-.3 2.8-.2 4.1.1.8.2 1.5.5 2.2.9.6.4 1.1.8 1.4 1.4.2.4.6.5.8.4.1 0 .1-.1.2-.2-.1-.1-.2-.2-.4-.2.2 0 .3.1.4.2.1-.2.1-.4 0-.6zM39.1 9.5c-.2-1.5-.5-3-1.2-4.3-.3-.5-.7-1-1.2-1.3-.3-.2-.7 0-.8.3.1.3.2.6.6.6-.4 0-.5-.3-.6-.6-.1.2 0 .5.2.7 0 0 .1 0 .1.1.1.1.2.1.2.2l.1.1v.1c.1.1.1.2.2.3.3.5.5 1 .7 1.6.4 1.5.6 3.1.6 4.7 0 1.1-.1 2.1-.2 3.1 0 .3.3.6.6.6.2 0 .4-.1.4-.2.1-.4.1-.9 0-1.4.1.5.1 1 0 1.4.1-.1.1-.2.1-.3.4-1.9.4-3.8.2-5.7zM36.8 13.2c-.6-.6-1.2-1.3-1.6-2.1-.2-.4-.5-.8-.6-1.2-.1-.2-.2-.4-.2-.6 0-.1 0-.2-.1-.3v-.1c0-.3-.2-.6-.6-.6h-.2c.2.3.3.6.4 1-.1-.3-.2-.7-.4-1-.2.1-.4.3-.4.5.1 1 .5 2 1.1 2.8.5.8 1.1 1.7 1.8 2.4.2.2.5.2.7 0-.1-.3-.1-.6-.3-.9l.3.9c.3-.1.4-.5.1-.8z" class="st4"/><path d="M31.4 7c-2.2 2.5-5.2 4.4-8.5 5.2-.8.2-1.6.3-2.5.4-.7 0-.7 1.2 0 1.1.6 0 1.1-.1 1.7-.2.2-.2.4-.5.4-.8-.1.3-.2.6-.4.8 2.9-.5 5.6-1.9 7.9-3.6.8-.6 1.5-1.3 2.2-2.1.1-.1.2-.3.2-.5-.1 0-.2-.1-.2-.1.1 0 .2 0 .2.1 0-.1-.1-.2-.2-.3-.2-.2-.6-.2-.8 0zM32.6 12.4zM32.2 12.4s.1 0 0 0c.1 0 0 0 0 0zM31.9 12.5c-.1 0-.1 0 0 0-.1 0-.1 0 0 0zM32.4 14.6c-.7 0-.7 1.1 0 1.1s.7-1.1 0-1.1zM25.7 15.3c.7 0 .7-1.1 0-1.1s-.7 1.1 0 1.1zM29.5 18.8c-.1-.1-.2-.1-.3-.1h-.8c-.1 0-.1.1-.2.1-.1.1-.1.1-.1.2s-.1.1 0 .2v.1c0 .1.1.2.1.2l.1.1c.1.1.2.1.3.1h.8c.1 0 .1-.1.2-.1.1-.1.1-.1.1-.2s.1-.1 0-.2v-.1c0-.1-.1-.2-.1-.2s-.1 0-.1-.1zM47.1 123s0 .1 0 0V84.8c-.2-4-.7-8-1.3-11.9-.5-3.4-1.1-6.8-1.1-10.2v-1.9c0-.1 0-.2-.1-.3-.2-.1-.3-.1-.6-.1.2 0 .4 0 .6.1-.1-.2-.3-.3-.5-.3-.3 0-.5.3-.6.6-.1 1.4 0 2.8.1 4.2.2 1.7.4 3.5.6 5.2.6 4.1 1.2 8.1 1.5 12.2.1 1.3.2 2.7.2 4v35.9c-1.2 0-2.3-.1-3.5-.1-2.2-.1-4.4-.1-6.5-.2h-1.5c-.4 0-.6.3-.5.6l2.3.2-2.3-.2c0 .3.2.6.5.6 1.4 0 2.7.1 4.1.1 1.3 0 2.7.1 4 .1v-.4.4c.8 0 1.7.1 2.5.1h1.5c.4.2.6-.1.6-.5 0 .1 0 .1 0 0 0 .1 0 0 0 0z" class="st4"/><path d="M39.5 44.1v.9h4.8v-.9h-4.8z" class="st2"/><path d="M14 39.7c-.7-1.1-1.6-2.1-2.6-2.9-.2-.2-.6 0-.8.2-.2.3 0 .6.2.8.1.1.4.3.5.5l.6.6 1.2 1.5c.8 1.2 1.5 2.5 1.8 4 .2.7 1.3.4 1.1-.3-.4-1.6-1.1-3-2-4.4zM31 23c.3-.1.4-.5.2-.8-.2-.3-.5-.4-.8-.2-.1 0-.1.1-.2.1h-.1c-.1 0-.3.1-.4.1H28.5c-.2 0-.3-.1-.5-.1h-.1c-.1 0-.1-.1-.2-.1s-.1-.1-.2-.1h-.1l-.1-.1c-.2-.2-.6-.2-.8 0-.2.2-.2.6 0 .8 1.1 1 3.1 1.2 4.5.4z" class="st4"/><path d="M57.1 48h-.2c-.1-.1-.2-.1-.4-.1h-.1c-.8.2-1.6.6-2.4.9-.1 0-.2 0-.3.1H53c-.1 0-.2-.1-.3-.1h-.1s-.1-.1-.2-.1c-.3-.1-.6-.3-.8-.5-.8-.6-1.6-1.4-2.3-2.2-.1-.1-.1-.1-.2-.1h-.3c-.3 0-.5.1-.6.4-.1.3-.2.7-.4 1.1-.3-2.4-.8-4.9-1.4-7.2-.2-1-.5-2-.8-2.9l-.3-.9c-.2-.5-.7-.9-1.1-1.3-.7-.6-1.5-1.1-2.3-1.5.4-.7.7-1.4.6-2.3-.1-.9-.5-1.8-1-2.6-.4-.8-1-1.5-1.4-2.2-.5-1-.9-2.1-1.2-3.1-.3-1.1-.6-2.3-.6-3.4 0-.1 0-.2-.1-.3 0 0 0-.1.1-.1.4-.8.8-1.9.6-2.8 0-.1-.1-.2-.1-.3-.1.2-.1.4-.2.7.1-.2.1-.4.2-.7-.2-.5-.7-1-1.3-.9.2.2.4.3.7.4-.3-.1-.5-.2-.7-.4h-.2c-.3.1-.5.4-.4.7.1.3.4.5.7.4 0 0 .1.1.1.2v.5c0 .1 0 .2-.1.3-.1.2-.1.5-.2.7 0 .1 0 .1-.1.2v.1c-.1.1-.1.2-.2.3-.1.1-.1.2-.2.3l-.1.1-.1.1c-.1.1-.2.2-.2.3l-.1.1s-.1 0-.1.1c-.1 0-.1.1-.2.1-.3-.2-.7-.1-.9.3-.3 1.5-.8 3-1.6 4.3-.8 1.2-1.9 2.2-3.2 2.7-1.4.5-2.9.4-4.2-.2-1.3-.6-2.4-1.6-3.3-2.8-.9-1.3-1.5-2.8-1.9-4.3-.1-.2-.2-.4-.4-.4-1-.4-1.5-1.4-1.7-2.4-.1-.5-.1-1 .1-1.5.1-.2.2-.4.4-.6.2-.1.3-.2.5 0 .2.1.4.1.5 0-.1-.2-.3-.6-.6-.4.3-.2.5.3.6.4h.1c.1-.2.2-.3.3-.4 0-.2-.1-.4-.3-.5-.6-.4-1.3-.3-1.8.2-.2.1-.3.3-.5.5-.4.6-.5 1.4-.5 2.1 0 .1 0 .3.1.4-.2 1.5-1.3 2.6-2.2 3.7-1 1.2-2.1 2.6-2.3 4.3-.1.8.1 1.6.4 2.4.1.3.3.7.3 1.1 0 .3-.2.6-.3.9-.5.9-1.4 1.5-2.1 2.2-.5.4-.9.9-1.3 1.4-.4.5-.7 1-.8 1.6 0 .2.2.5.4.5l-.2.2c-.5.6-1 1.3-1.3 2-.2.5-.3 1-.5 1.5-.2.7-.4 1.5-.6 2.2-.6 2.1-1.3 4.1-2 6.1-.8 2.3-1.6 4.5-2.4 6.8-.7 1.8-1.3 3.7-2 5.5-.5 1.5-1.4 3.2-.7 4.7.4 1 1.4 1.6 2.2 2.3l1.2.9c.3.2.6.4.9.7 0 .1-.1.1-.1.2-.4.6-.2 1.4.4 1.8.1.1.1.1.2.1.5.3.9.7 1.4 1 1.5 1.1 3.1 2.2 4.6 3.3l.9.6c2.2 1.6 4.4 3.1 6.5 4.7 1.6 1.1 3.1 2.2 4.7 3.4.2.2.5.3.7.5.6.4 1.4.2 1.8-.4.1-.1.1-.2.2-.3.3-.4.6-.8.9-1.3l.1-.1c.3.1.6.3.8.4.4.5.9.6 1.4.6.5-.1 1-.4 1.2-.8.1-.2.2-.5.2-.8.6 0 1.1-.1 1.5-.7.3-.4.4-.8.3-1.2.5-.1.9-.4 1.2-.8.2-.3.3-.6.3-1 .4.1.9.1 1.3-.2.5-.3.7-.9.7-1.5 0-.5-.4-.9-.8-1.3-.2-.2-.4-.3-.6-.5h.4c.9-.1 1.9-.6 1.9-1.6 0-.5-.3-.9-.7-1.2-.3-.2-.7-.3-1.1-.3.1-.1.1-.2.2-.2 1.5-2.1 3.1-4.3 4.6-6.4 1.1-1.6 2.3-3.2 3.4-4.8.3-.4.6-.8.9-1.3.1-.1.1-.2.2-.2.4-.6.2-1.4-.4-1.8-.9-.7-1.8-1.3-2.7-1.9-.6-.5-1.3-.9-1.9-1.4.1-.2.3-.4.3-.7 0-.4-.3-.6-.6-.8-.1-.1-.2-.2-.4-.3-.2-.1-.3-.2-.5-.4-2-1.4-4-2.9-5.9-4.3-.5-.4-1.1-.8-1.6-1.2-.1-.1-.2-.1-.4-.1s-.4 0-.6.2l-.3.3c-.2-.1-.3-.2-.5-.3-1.2-.9-2.5-1.8-3.7-2.7-.1-.1-.2-.1-.2-.2-.1-.1-.2-.1-.3-.1.1 0 .1-.1.2-.1.2-.2.2-.6 0-.8l-3-3.6c-.1-.1-.2-.2-.3-.4V37h.1c.1-.1.3-.2.5-.3.7-.5 1.5-1.1 2.2-1.6.2-.1.4-.3.6-.4.2-.1.3-.3.3-.5 1 1.9 1.8 3.9 2.6 6l1.5 3.9c.1.3.4.5.7.4h.1c.2-.1.4-.4.3-.7-.9-2.5-1.9-5-3-7.5 1.5 1.1 3 2.1 4.5 3.2.3.2.5.4.8.6.2.2.6.1.8-.2.6-1.2 1.3-2.5 1.9-3.7.1-.2.1-.4 0-.5-.2-.4-.7-.5-1-.1-.5 1.1-1.1 2.1-1.6 3.2-1.7-1.2-3.5-2.5-5.2-3.7-.3-.2-.5-.4-.8-.6-.1 0-.1-.1-.2-.1-.8-1.5-1.6-3-2.5-4.4-.5-.8-1.1-1.5-1.7-2.3.1-.1.3-.2.3-.3.1-.7.2-1.3.3-2 .8 1.1 1.8 2 3 2.6 1.5.8 3.2 1 4.8.6.8-.2 1.6-.6 2.2-1.1-.2 1.6-.3 3.2-.4 4.8 0 .7 1.1.7 1.1 0l.3-3.6c-.1-.1-.3-.1-.4-.2.2 0 .3.1.4.2.1-.8.2-1.5.2-2.3v-.1c.2-.2.3-.4.5-.5 1.1-1.4 1.7-3 2.1-4.7.3-.1.6-.2.9-.4.2 1.8.8 3.6 1.5 5.3.4.8.8 1.6 1.3 2.4.5.7.9 1.4 1.2 2.2.3.9.1 1.8-.5 2.6-.1.1-.1.2-.1.3 0 .2 0 .3.1.5.1.1.1.1.2.1 0 .1.1.1.2.1.7.3 1.4.7 2 1.2.4.3.9.7 1.1 1.1 0 .1.1.1.1.2s.1.3.1.4c.7 2.1 1.1 4.2 1.6 6.4.1.7.3 1.3.4 2 .1.3.1.6.2.9 0 .1 0 .3.1.4v.3c0 .3.2.6.6.6.1 0 .3-.1.4-.2v.1c-.6 1.9-1.2 3.9-1.7 5.9-.2.7.9 1 1.1.3.5-2.2 1.2-4.4 1.9-6.6.6.6 1.2 1.2 1.8 1.7.5.4 1.1.8 1.7 1 .9.3 1.8 0 2.7-.3.4-.2.7-.3 1.1-.4v.2c-.1.7-.2 1.5-.4 2.2-.3 2.1-.7 4.2-1.1 6.3-.2 1-.4 1.9-.6 2.9-.1.7-.3 1.4-.5 2.1v.1s0 .1-.1.1c0 .1-.1.2-.2.3-.1.1-.1.2-.2.3v.1l-.1.1c-.1.2-.3.3-.4.4l-.1.1s-.1 0-.1.1c-.1.1-.2.1-.3.2-.1.1-.2.1-.3.2 0 0-.1 0-.1.1H52c-.2.1-.4.1-.6.2-.1 0-.2 0-.3.1H49.9c-.2 0-.4-.1-.6-.2-.1 0-.2-.1-.3-.1h-.1c-.1 0-.1-.1-.2-.1-.2-.1-.4-.2-.5-.3l-.1-.1-.2-.2c-.1-.1-.1-.2-.2-.2l-.1-.1c0-.1-.1-.1-.1-.2-.3-.4-.5-.8-.6-1.3-.1-.3-.1-.6-.2-.8 0-.2-.1-.3-.2-.4-.1-.1-.2-.1-.4-.1s-.5.2-.6.4c.2.1.4.3.7.4-.2-.1-.5-.2-.7-.4v.1c.2 1.2.5 2.3 1.3 3.3.6.7 1.5 1.3 2.5 1.5 1.8.4 3.9-.1 5.2-1.6.6-.7.8-1.5 1-2.3.2-.9.4-1.7.5-2.6l1.2-6.6c.2-1.4.4-2.7.7-4.1v-.1c-.4-.8-.5-1.1-.8-1.2zM37.5 16.6zM10.8 34.8s0-.1.1-.1c.1-.2.3-.4.4-.6.4-.4.8-.9 1.2-1.3.8-.7 1.6-1.4 2.2-2.3.4-.7.7-1.4.5-2.2-.1-.8-.6-1.4-.7-2.2-.2-1.5.9-3 1.8-4.1.7-.9 1.6-1.8 2.1-2.9.4.6.9 1.2 1.6 1.5.3 1.2.8 2.3 1.3 3.4-.1.9-.3 1.8-.4 2.7v.1l-.2-.2c-.5-.5-1.3.3-.8.8.2-.2.2-.7.2-.9 0 .2 0 .7-.2.9-.2-.1-.6-.1-.7.2-.3.5-.5 1-.8 1.6-.1.3-.3.5-.4.8-.1.3-.3.5-.3.8-1.5.6-2.9 1.3-4.3 2.1-.7.6-1.7 1.1-2.6 1.9zM5.4 69.6c-.1-.1 0 0 0 0zm19.2 13.7s0-.1 0 0zm.2-.4c-.1.1-.1.2-.2.3v.1h-.2c-.9-.6-1.7-1.3-2.6-1.9-2-1.4-3.9-2.8-5.8-4.2-2.1-1.5-4.2-3.1-6.3-4.6-1.3-.9-2.6-1.9-3.9-2.8-.1-.1-.2-.1-.2-.2-.1-.1-.1-.1-.1-.2 0 0 0-.1.1-.1v-.1c.8.6 1.7 1.2 2.5 1.8 1.7 1.2 3.4 2.3 5.1 3.4 1 .7 2.1 1.4 3.1 2.1.1 0 .1.1.2.1.3.2.6 0 .8-.2.3-.4.5-.8.8-1.2h.1c.2.1.3.2.5.3l.1.1.1.1c.1.1.2.2.3.2 1 .8 1.9 1.6 2.8 2.5.8.7 1.5 1.5 2.3 2.2.4.5.9.8 1.5 1.1.1 0 .1 0 .2.1-.6.4-.9.7-1.2 1.1zm9.6-6.7s0-.1 0 0zm.9-3.4c0 .1 0 .2-.1.2-.1.1-.3.2-.4.2-.8.2-1.6-.1-2.4-.3-.1 0-.1-.1-.2-.1-.5-.4-.9-.8-1.4-1.1-.2-.2-.6-.2-.8 0-.2.2-.2.6 0 .8.8.7 1.6 1.3 2.4 2 .6.5 1.2.9 1.7 1.4.1.1.2.1.2.2.1.1 0 .1.1.1v.2c-.1.2-.1.3-.3.3h-.2c-.2-.1-.2-.1-.5-.2l-.6-.3c-.2-.1-.5-.3-.7-.4-.5-.3-1.2.5-.7.9.2.2.5.4.7.7.1.1.3.2.3.4 0 .1-.1.3-.1.4-.1.1-.2.2-.3.2H31.7c-.3-.1-.7-.3-1-.5-.2-.2-.6 0-.8.2-.2.3 0 .6.2.8l.1.1h.1c.2.1.3.3.5.4l.3.3c0 .1 0 .3-.1.4-.4.5-1.2 0-1.6-.2-.7-.3-1.2.6-.6 1l.1.1.3.3c.1.1.1.2.1.3 0 .1-.1.2-.2.2-.2.1-.5-.1-.7-.2-.3-.2-.6-.3-.9-.5-.7-.3-1.4-.5-2-.9-.3-.2-.6-.6-.8-.8-1.5-1.6-3.2-3.1-4.9-4.5-.3-.3-.7-.5-1-.7.1-.2.3-.4.4-.7.9-1.5 1.9-3 2.8-4.5.1-.1.2-.3.3-.4.4.2.9.5 1.3.7.5.3 1 .5 1.5.7.4.2.9.4 1.4.4.8 0 1.5-.3 2.2-.6.5-.2 1.1-.2 1.7.1.8.3 1.3 1.1 2 1.6.4.3.8.5 1.2.7.4.1.8.2 1.2.2 0 .1.4.1.5.4zM43 57.5c-.1 0 0 0 0 0zm-4.8-4.7c.2.1 0 0 0 0zM30 46.5c.1-.1.1 0 0 0 0 .1 0 0 0 0zm-1 1.4c.1-.2.3-.4.4-.6.1-.2.3-.4.4-.6.2.1.4.3.6.4l2.1 1.5c1.6 1.1 3.1 2.3 4.7 3.4.3.2.5.4.8.5-.1.2-.3.4-.4.6-.1.2-.3.4-.4.6-.9-.7-1.8-1.3-2.7-2-1.6-1.1-3.1-2.2-4.7-3.4-.3 0-.5-.2-.8-.4zm8.4 6zm-8.6-6.1s0-.1 0 0c-.2-.2 0-.1 0 0zm-5-4h.2c.1 0 .1.1.2.1.5.3.9.7 1.4 1 .9.7 1.8 1.3 2.7 2-.1.2-.3.4-.4.6-.3.4-.1.9.2 1.1l.1.1c.2.2.5.3.7.5.9.7 1.8 1.3 2.7 2 1.7 1.2 3.3 2.4 5 3.6l.1.1c.1 0 .1.1.2.1.4.1.7-.1.9-.4.1-.2.2-.3.3-.5 1.3.9 2.6 1.8 3.8 2.8.3.2.6.4.8.6v.2c-.1.1-.1.2-.2.3l-2.4 3.3c-1.4 1.9-2.7 3.8-4.1 5.7-.9 1.3-1.9 2.6-2.8 3.9-.4-.2-.8-.5-1.2-.9-.4-.3-.7-.7-1.1-1-.4-.2-.8-.4-1.2-.5-.4-.1-.7-.1-1.1-.1-.4 0-.7.2-1.1.3-.4.2-.8.3-1.3.4h-.1c-.1 0-.2 0-.3-.1-.1 0-.2-.1-.3-.1-.1 0-.1 0-.2-.1h-.1c-.3-.1-.6-.3-.8-.4-.7-.4-1.4-.7-2.1-1.2 0-.1-.1-.2-.2-.3-1.1-.8-2.2-1.6-3.3-2.5-1.8-1.3-3.5-2.6-5.3-3.9-.3-.2-.5-.4-.8-.6.3-.9.7-1.7 1-2.6 1.4-1.9 2.8-3.9 4.2-5.8l3.9-5.4c.6-.5 1.3-1.4 2-2.3-.1.1-.1 0 0 0-.1 0 0 0 0 0zm.7-10c-.2-.1-.4-.1-.6 0-.6.4-1.2.8-1.7 1.2-.4.3-.8.5-1.2.8-.2.2-.5.3-.7.5-.4.4-.4 1.2-.2 1.8.1.2.2.4.4.6.6.7 1.2 1.4 1.7 2.1.5.6 1 1.2 1.4 1.7l.1.1c-.4.1-.7.3-1 .6-.2.3-.4.5-.6.8-1 1.4-2 2.8-3 4.1-1.2 1.7-2.5 3.4-3.7 5.1.4-.9.8-1.9 1.1-2.8.2-.5.4-1 .6-1.4.1-.3-.1-.6-.4-.7h-.1c-.3 0-.5.2-.6.4-.5 1.3-1 2.6-1.6 3.9-.8 2.1-1.7 4.2-2.5 6.2-.2.5-.4 1-.6 1.4-.1.2.1.5.3.6 1.1.8 2.2 1.6 3.3 2.5l5.3 3.9c.2.2.5.4.8.6l-1.5 2.4c-.9 1.5-1.9 3-2.8 4.5-.1.2-.2.3-.3.5-.6-.4-1.1-.8-1.7-1.1-1.5-1-3.1-2.1-4.7-3.1l-4.8-3.3c-.3-.2-.6-.4-.9-.7-.1-.1-.2-.2-.4-.3-.1 0-.1-.1-.2-.1h-.1c-.5-.4-1-.8-1.5-1.3-.2-.2-.4-.4-.6-.5-.2-.2-.3-.3-.4-.6-.1-.1-.2-.4-.2-.6 0-.3 0-.6.1-.9.1-.5.3-1 .5-1.5.6-1.6 1.2-3.2 1.7-4.8.8-2.2 1.6-4.4 2.3-6.5.7-2.1 1.5-4.2 2.2-6.4.3-.9.5-1.7.8-2.6.5-.9.6-1.6.9-2.4.5-1.4 1.6-2.6 2.8-3.4 1.3-.9 2.7-1.6 4.1-2.3.7-.3 1.4-.6 2-.9v.1c.2.9.4 1.7.6 2.6.1.3.1.6.2.9.2.7 1.3.4 1.1-.3-.3-1.4-.7-2.7-1-4.1 0-.1-.1-.2-.1-.4.4-.8.9-1.7 1.3-2.5.1-.2.1-.3 0-.5 1.6 1.9 2.9 4 4.1 6.1zm12.9-15.2c-.1 0-.1 0 0 0z" class="st4"/><path d="M20.8 15c0-.1.1-.2.1-.2-.1.1-.2.3-.3.4l.2-.2zM67.2 32.4c.1-.5 0-1-.4-1.3-.5-.4-1.2-.4-1.7-.1-.2.1-.5.3-.7.4-.1-.1-.2-.3-.4-.4-.4-.2-.8-.3-1.3-.2-.7.1-1.3.5-1.9.8l-3.6 2.1c.1-.2.1-.4.1-.6.1-.6.1-1.3-.3-1.8s-1.2-.7-1.9-.4c-.6.3-.9.9-1.1 1.5-.1.5-.3 1-.5 1.5-.1.2-.2.3-.3.5l-.1.1c-.1.1-.1.2-.2.2-.7.8-1.6 1.4-2.2 2.3-.8 1.2-1 2.6-.8 4-.3 1.3-.6 2.5-.9 3.8-.1.2 0 .4.1.5l.3-1.1-.3 1.1c.3.3.8.3 1-.2.2-.7.4-1.5.6-2.2.1-.4.2-.9.3-1.3 0-.1.1-.2.1-.3v-.4c0-.2-.1-.5-.1-.8 0-.8.2-1.5.6-2.2.4-.7.9-1.1 1.5-1.6.4-.4.9-.8 1.2-1.3.4-.6.7-1.3.8-2 .1-.3.1-.6.3-.9.1-.1.2-.3.4-.2.1 0 .3.1.3.2V32.4c0 .2 0 .4-.1.6-.1.5-.3 1.1-.5 1.6-.4.3-.8.5-1.2.8-.2.2-.4.5-.2.8.1.2.5.4.8.2.6-.4 1.2-.8 1.9-1.2.7-.4 1.4-.8 2-1.2.6-.4 1.2-.7 1.8-1.1.4-.3.8-.5 1.3-.8.3-.2.7-.3 1-.3h.2c-1.4.8-2.7 1.5-4.1 2.3-.6.4-.1 1.3.6 1 1.5-.8 3-1.7 4.6-2.5.3-.1.5-.3.8-.4.3-.1.5-.3.8-.3.1 0 .1 0 .2.1 0 .1 0 .1-.1.2s-.1.2-.2.3c-1.4.7-2.8 1.5-4.1 2.2l-.6.3c-.6.3-.1 1.3.6 1 1.4-.8 2.9-1.5 4.3-2.3.1-.1.2-.1.4-.2 0 0 .1 0 .1-.1h.2l.1.1c0 .1-.1.1-.1.2l-.1.1c0 .1-.1.1-.2.2 0 0-.1.1-.2.1H66c-.1.1-.3.2-.4.3-.1 0-.1.1-.1.2-.2-.1-.4-.1-.6-.1-1.1 0-2 .9-3 1.5l-2.1 1.2c-1.3-.2-2.6 0-3.9.2-1.3.3-2.8.8-3.8 1.8-.5.5.3 1.3.8.8.2-.2.4-.3.6-.5.2-.2.5-.3.8-.4.6-.3 1.2-.5 1.9-.6.7-.2 1.3-.3 2-.3h.9c.3 0 .4 0 .8.1.3.1.5-.1.6-.3.8-.4 1.6-.9 2.4-1.3.5-.3 1-.8 1.6-1 .2-.1.3-.1.5-.1h.1l.1.1c0 .2-.5.5-.6.6-.3.2-.6.4-.8.7-.3.2-.6.4-.9.7-.4.3-.7.6-1.1.8-1.4 1-2.7 2.1-4.1 3.1-.4.3-.8.6-1.1.9-.1.1-.2.1-.3.2-.2.2-.2.4-.2.6-.2 1.3-.5 2.5-.7 3.8-.1.3.1.6.4.7h.4c.2-.1.3-.2.3-.4.3-1.3.5-2.6.8-4 1.5-1.1 3-2.3 4.4-3.4 1.1-.8 2.2-1.7 3.3-2.5.4-.3 1-.7 1.3-1.2.2-.3.2-.6.1-.9l.1-.1s.1 0 .1-.1c.1 0 .1-.1.2-.1.2-.1.3-.2.5-.4.3-.3.6-.7.6-1.2.1-.3-.2-.9-.7-1.1zm-1-.4c0 .1 0 0 0 0zm.5 1.4zm.2.2zm0 0zm0 0zM33.7 104.4c-.3 0-.5.3-.6.6-.2 2-.3 4-.5 6-.2 3.2-.5 6.3-.7 9.5 0 .5-.1 1.1-.1 1.6-1.6 0-3.2.1-4.8.1-3.7.1-7.3.1-11 .2h-5.4l.3-10.2.3-11.8c.1-3.7.1-7.3.2-11 0-2.8.1-5.6.1-8.3 0-1.2.1-2.5 0-3.7v-.1c0-.4-.4-.6-.7-.5v2-2c-.2.1-.4.2-.4.5v3.1c0 2.6-.1 5.2-.1 7.9-.1 3.6-.1 7.2-.2 10.8l-.3 11.8-.3 10.9v1.2c0 .3.3.6.6.6H15c-.1 1.6-.2 3.1-.2 4.7-.1 2.5-.2 5-.4 7.4 0 .6-.1 1.1-.1 1.7 0 .3.3.5.6.6 1 .1 1.9.1 2.9.2-.1.7-.2 1.3-.4 2-.2.9-.4 1.7-.7 2.5-.6 1.4-1.4 2.6-2.1 3.8-.9 1.7-1.5 3.5-1.8 5.3-.2.9-.3 1.8-.4 2.7 0 .7 0 1.5.2 2.2.5 1.6 2.2 2.3 3.8 2 1.6-.3 3-1.5 3.9-2.8 1-1.2 1.7-2.6 2.4-3.9.6-1.1 1-2.2 1.3-3.4.4-1.5.6-3 .9-4.5.3-1.6.7-3.1 1.2-4.6.1-.3.2-.5.3-.8.6 0 1.3.1 1.9.1v-.4.5c.6 0 1.2.1 1.9.1.3 0 .6-.3.6-.6 0-3.4.1-6.9.4-10.3.1-1.4.2-2.7.3-4.1 0-.2-.1-.4-.3-.5-.1 0-.2-.1-.2-.1-.3 0-.5.3-.6.6-.5 4.4-.6 8.9-.7 13.3v.5c-1.5-.1-3.1-.2-4.6-.3-2.8-.2-5.5-.4-8.3-.6-.4 0-.9-.1-1.3-.1.1-1.4.1-2.8.2-4.2.1-2.5.2-5 .4-7.4 0-.6.1-1.1.1-1.7 1.7 0 3.3 0 5-.1 3.1-.1 6.2-.1 9.4-.2h1.8c.3 0 .5-.3.6-.6v-.1l-.7-.1.7.1c.1-2 .3-3.9.4-5.9.2-3.2.5-6.3.7-9.5.1-.7.1-1.5.2-2.2-.1-.2-.4-.5-.6-.5zm-13.4 49.7c-.8 1.3-1.8 2.5-3.1 3.2-.6.3-1.2.5-1.9.5-.6-.1-1.2-.4-1.5-.8-.3-.5-.4-1.1-.4-1.7 0-.8.1-1.6.2-2.4.1-.9.3-1.7.6-2.6.1.2.2.5.3.7.3.7.7 1.4 1.3 2 .6.5 1.3.7 2.1.5.9-.1 1.7-.5 2.5-.9.4-.2.7-.4 1.1-.6-.3.8-.7 1.5-1.2 2.1zm-1.6-14.9c0-.3.1-.6.2-.8.4 0 .8.1 1.2.1 1.7.1 3.5.2 5.2.3-.5 1.3-.8 2.6-1.2 3.9-.4 1.5-.6 3.1-.9 4.6-.2.9-.5 1.9-.8 2.8-.1 0-.2.1-.3.1-.6.5-1.2.9-1.9 1.3s-1.4.7-2.2.9c-.3.1-.6.1-.9.1H17c-.1 0-.1 0-.2-.1 0 0-.1 0-.1-.1h-.1l-.1-.1c-.5-.4-.8-1-1.1-1.6-.3-.7-.5-1.4-.7-2.1v-.1c.1-.3.3-.6.4-.9.6-1.2 1.4-2.3 2-3.5.4-.8.7-1.6 1-2.4.4-.8.5-1.6.6-2.4z" class="st4"/></g></g></svg>