<svg xmlns:xlink="http://www.w3.org/1999/xlink" xmlns="http://www.w3.org/2000/svg" width="18" height="16" fill="none"><path d="M8.66 13.88H2.89c-.821 0-1.48-.623-1.48-1.385l.008-8.583c0-.762.651-1.385 1.472-1.385h.74v-.692c0-.38.332-.692.74-.692.406 0 .739.312.739.692v.692h6.509v-.692c0-.38.332-.692.74-.692.406 0 .739.312.739.692v.692h.74c.813 0 1.479.623 1.479 1.385v3.045h-1.48v-.83H2.89v6.368h5.77v1.384zm7.491-3.469l.526-.49a.659.659 0 000-.977l-.526-.491a.773.773 0 00-1.042 0l-.526.491 1.568 1.467zm-.525.492l-3.705 3.468a.773.773 0 01-.518.2h-.895c-.207 0-.37-.152-.37-.345v-.838c0-.187.082-.36.215-.492l3.705-3.467 1.568 1.474z" fill="#fff"/></svg>