<svg xmlns:xlink="http://www.w3.org/1999/xlink" xmlns="http://www.w3.org/2000/svg" width="30" height="31" fill="none"><g clip-path="url(#a)" fill-rule="evenodd" clip-rule="evenodd" fill="#fff"><path d="M22.233 29.964a7.768 7.768 0 1 0 0-15.535 7.768 7.768 0 0 0 0 15.535Zm4.75-9.005a1.236 1.236 0 1 0-1.733-1.762l-4.117 4.05-1.877-2.03a1.236 1.236 0 0 0-1.815 1.677l2.742 2.966a1.236 1.236 0 0 0 1.774.042l5.026-4.943Z"/><path d="M16.203 19.797a10.265 10.265 0 0 0-3.882-.773c-4.916 0-9.487 3.679-9.638 8.262H20.14a6.674 6.674 0 0 0 2.629.535c.642 0 1.263-.09 1.85-.259v.009a2.403 2.403 0 0 1-2.398 2.393H2.4A2.403 2.403 0 0 1 0 27.571c0-4.852 3.086-8.986 7.405-10.553 1.2-.435 3.566-.673 4.916-.673 1.35 0 3.714.237 4.913.672l.19.07a6.664 6.664 0 0 0-1.22 2.71ZM12.321 15.1a7.318 7.318 0 0 1-3.633-.955A7.28 7.28 0 0 1 5.005 7.8c0-4.02 3.287-7.3 7.316-7.3 4.03 0 7.316 3.28 7.316 7.3a7.298 7.298 0 0 1-3.689 6.343 7.295 7.295 0 0 1-3.627.957Zm4.638-7.3a4.628 4.628 0 0 1-4.638 4.622A4.613 4.613 0 0 1 7.684 7.8c0-2.536 2.081-4.621 4.637-4.621 2.556 0 4.638 2.085 4.638 4.621Z"/></g><defs><clipPath id="a"><path fill="#fff" transform="translate(0 .5)" d="M0 0h30v30H0z"/></clipPath></defs></svg>