<svg xmlns:xlink="http://www.w3.org/1999/xlink" xmlns="http://www.w3.org/2000/svg" width="64" height="59" fill="none"><g clip-path="url(#a)"><path d="m37.855 32.759-.028-.04a11.228 11.228 0 0 1-1.992 1.949c.618.425 1.08 1.012 1.52 1.61.46.623.844 1.212 1.339 1.754.183.2.199.51 0 .71-.185.184-.53.2-.712 0-.175-.193-.34-.395-.5-.6-.007.098-.015.197-.026.295-.042.395-.08.874-.253 1.265.014.02.03.04.044.066.236.447.42.922.608 1.392a105.882 105.882 0 0 1 1.473 3.91 70.117 70.117 0 0 0-.131-5.783c-.095-1.43-.218-2.725-.495-4.092a11.6 11.6 0 0 0-.415-1.556 5.056 5.056 0 0 0-.112-.29l-.044-.1c-.02-.043-.04-.087-.063-.13a3.248 3.248 0 0 0-.213-.362v.002ZM34.408 34.362a4.748 4.748 0 0 0 .885-.544l.069-.052.157-.124a10.605 10.605 0 0 0 1.424-1.416l.03-.34c.038-.43.079-.859.117-1.29a6.97 6.97 0 0 1-3.298 1.348c-1.677.218-3.335-.2-4.81-.995-.819-.439-1.593-1.002-2.205-1.704a7.578 7.578 0 0 1-.545-.712c-.052.347-.102.696-.155 1.043.31.248.63.485.958.712 2.313 1.596 4.872 2.78 7.353 4.088.006-.004.012-.01.02-.012v-.002ZM37.83 32.717l.011.016-.012-.018v.002ZM55.642 31.568c.302.291.424.694.463 1.099.068.722-.121 1.474-.276 2.173-.034.157-.072.313-.109.472.049.006.09.008.13 0l.041-.014a.243.243 0 0 0 .049-.03.413.413 0 0 0 .07-.075.939.939 0 0 0 .107-.254c.04-.145.05-.259.052-.407.004-.79.01-1.58.016-2.37.002-.351.018-.77-.046-1.093a.757.757 0 0 0-.292-.495c-.245-.2-.69-.249-1.018-.11-.22.092-.312.246-.463.485-.098.156-.189.319-.275.481a.93.93 0 0 1 .444-.259c.393-.092.831.13 1.109.397h-.002ZM44.657 42.143c-.014 0-.016.024-.014.056v-.004s.012-.052.014-.052ZM32.043 34.294a75.506 75.506 0 0 1-3.35-1.794c-.201-.117-.402-.23-.603-.35-1.06-.633-2.11-1.32-3.048-2.13l-.423.75-.03.053-.006.01c.24.458.473.919.714 1.37a906.568 906.568 0 0 0 2.676 4.952 637.83 637.83 0 0 0 3.22 5.857c.785 1.407 1.576 2.81 2.389 4.202.014-1.325.034-2.65.086-3.976.025-.63.055-1.26.11-1.889.035-.428.064-.882.186-1.297a.522.522 0 0 1 .05-.118.517.517 0 0 1-.048-.206.646.646 0 0 1-.078-.089 11.18 11.18 0 0 1-1.417-2.74c-.154.126-.313.256-.478.398-.538.46-1.057.943-1.531 1.466-.183.203-.527.185-.713 0-.199-.198-.183-.507 0-.71a18.271 18.271 0 0 1 3.36-2.869c.201-.134.485-.062.638.113l.084-.085c-.595-.312-1.195-.615-1.794-.922l.006.004ZM57.172 35.52c.111.065.296.123.377.115.263-.02.489-.41.51-.682a.487.487 0 0 1 .019-.106c.078-.888.165-1.782.133-2.675a5.287 5.287 0 0 0-.02-.31c-.013-.12.003-.085-.035-.19.022.061-.016-.029-.026-.043-.008-.008-.008-.012-.008-.012a.639.639 0 0 0-.185-.118 2.38 2.38 0 0 0-.396-.092 2.425 2.425 0 0 0-.27-.005l-.083.006h-.004c.025.377.005.764-.004 1.123-.012.528-.034 1.053-.026 1.58.006.4.032.792-.096 1.177-.01.032-.024.062-.036.092.002.006.006.01.01.018a.535.535 0 0 0 .14.117v.006ZM59.097 35.194v.008a1.19 1.19 0 0 0 .034.055l.03.026a.428.428 0 0 1 .069.034c.026.008.056.016.064.02.006 0 .008.002.012.004h.004c.04-.002.083 0 .123 0h.02c.06-.016.12-.032.18-.05a.157.157 0 0 0 .031-.016c.02-.012.04-.024.059-.038.006-.017.014-.032.016-.04.028-.095.062-.189.092-.283.05-.157.101-.313.147-.471.095-.327.157-.654.215-.989.027-.158.057-.315.083-.473l.012-.08v-.004l.002-.02c.006-.058.012-.115.014-.173.002-.062 0-.126-.002-.188v-.012c-.006-.026-.01-.054-.018-.08l-.036-.119c-.01-.014-.05-.09-.064-.116a.817.817 0 0 0-.105-.136c-.026-.026-.052-.054-.08-.078l-.027-.017c-.022-.014-.044-.024-.066-.038l-.01-.006h-.004c-.02-.008-.093-.024-.103-.03a1.061 1.061 0 0 0-.527.104c-.016.009-.034.013-.05.019.074.95-.039 1.924-.127 2.875 0 .01.002.02 0 .03-.004.068 0 .134-.002.2v.004c.006.02.016.052.018.07l-.004.008Z" fill="#fff"/><path d="M59.721 35.242v-.004c-.02.016-.018.022 0 .004ZM59.631 35.291c-.048.014-.032.014 0 0ZM38.008 31.583l.006.006-.006-.006-.022.239a.5.5 0 0 1 .062.084c.177-.054.389-.03.503.118.714.916.98 2.138 1.185 3.256.563 3.066.626 6.238.594 9.345a92.337 92.337 0 0 1-.109 3.796l.044.106-.06.199a40.986 40.986 0 0 1-.465 4.362c-.044.269-.378.415-.62.351a.46.46 0 0 1-.273-.2l-.248.824-2.762-2.785c-.159.242-.507.369-.77.102-.043-.044-.083-.09-.123-.136-.779-.944-1.374-2.063-1.992-3.112a253.255 253.255 0 0 1-3.001-5.283 684.342 684.342 0 0 1-2.926-5.331.623.623 0 0 1-.118.11l-2.139 1.5-1.016.712-.13.09c-.005.002-.01.01-.02.018v.004s-.019.032-.035.112c0 .006 0 .008-.002.012v.01c-.004.036-.004.07-.006.107 0 .062 0 .122.004.184.002.042.008.084.012.128l.004.018.022.12c0 .007.002.01.004.017.024.038.05.096.063.116.173.283.348.565.52.848.844 1.371 1.687 2.743 2.53 4.116.34.551-.532 1.055-.87.505-.398-.647-.796-1.297-1.195-1.944l-1.587-2.583c-.119-.192-.251-.38-.356-.58a1.225 1.225 0 0 1-.11-.41c-.051-.331-.077-.676.015-1.003.115-.403.415-.597.733-.82l1.155-.81c.633-.443 1.265-.888 1.899-1.331a.4.4 0 0 1 .179-.068c-.801-1.478-1.6-2.956-2.394-4.437-.224-.417-.445-.832-.668-1.25-.409.813-.805 1.63-1.22 2.44l.097.398.994 4.086c.153.627-.817.892-.97.267l-.263-1.085c-.272-1.115-.541-2.232-.813-3.346-.02-.083-.044-.163-.06-.245-.06-.31.163-.605.3-.872l.257-.515.12-.243c-.253.08-.48.188-.695.305.094.07.169.168.197.27.078.285-.1.514-.352.618-.059.024-.117.044-.175.068a44.67 44.67 0 0 1-1.813.678c-1.583.56-3.179 1.082-4.74 1.704-.646.259-1.29.535-1.901.868-.537.293-.855.567-1.171 1.093-.708 1.179-1.006 2.602-1.29 3.942-.189.896-.376 1.788-.623 2.672-.61 2.184-1.338 4.335-2.068 6.48-.856 2.51-1.74 5.01-2.634 7.509-.682 1.907-1.374 3.81-2.056 5.718-.266.742-.592 1.498-.61 2.291-.036 1.544.855 2.936 1.881 4.02.11.117.218.233.338.337l.08.064a14.073 14.073 0 0 0 .682.471c.665.436 1.343.847 2.02 1.254a279.97 279.97 0 0 0 5.674 3.292 739.036 739.036 0 0 0 7.504 4.202l.423-.772c.961-1.752 1.925-3.504 2.887-5.257l1.573-2.863-1.07-.633-6.474-3.836c-1.354-.802-2.706-1.604-4.06-2.404-.246-.146-.302-.443-.181-.685.24-.476.479-.953.716-1.428l3.1-6.173 1.962-3.906a.42.42 0 0 1 .47-.246c.302.054.58.389.397.751-.24.476-.48.953-.716 1.428l-.576 1.147 2.06-2.845 2.988-4.127c.191-.262.378-.527.571-.79.387-.523 1.05-.76 1.654-.432.093.05.177.116.262.178 1.239.892 2.478 1.782 3.717 2.675l.534.383c.084-.125.17-.257.275-.355a.747.747 0 0 1 .912-.069c.557.357 1.084.78 1.621 1.167 1.964 1.412 3.927 2.823 5.89 4.237l.882.633c.28.2.583.391.585.786 0 .269-.139.435-.283.636-.013.016-.023.032-.035.048.65.467 1.3.934 1.95 1.404.9.647 1.81 1.28 2.7 1.942.555.411.732 1.15.332 1.737-.059.084-.121.166-.181.248l-.9 1.241c-1.144 1.58-2.29 3.16-3.432 4.74-1.386 1.915-2.772 3.83-4.16 5.744.368.207.766.353 1.2.387.474.038.964.054 1.399.263.459.218.853.696.89 1.209.08 1.103-1.105 1.634-2.029 1.72a4.13 4.13 0 0 1-.772-.006c.303.235.611.463.911.704.42.335.923.742.954 1.321.032.578-.266 1.191-.718 1.542-.445.345-.978.369-1.49.176-.021-.008-.041-.018-.064-.028a1.83 1.83 0 0 1-.297 1.193 1.871 1.871 0 0 1-1.37.808c.124.463.022.962-.282 1.39-.433.605-1.046.76-1.68.693.062.325.002.66-.185.985a1.546 1.546 0 0 1-.236.308h16.178v-.03c-.049-.777-.053-1.561-.079-2.341a79959.72 79959.72 0 0 0-.507-14.94c-.022-.637-.044-1.274-.064-1.914a.44.44 0 0 1 .36-.47c-1.086-.67-1.887-1.725-2.054-3.133-.032-.27.255-.501.503-.501.042 0 .082.006.118.016.224.054.357.257.385.485a3.483 3.483 0 0 0 .127.55c.07.218.096.282.213.49.195.353.36.558.67.839.175.158.231.2.42.325.165.108.338.206.515.294.312.155.694.285 1.097.373 1.265.283 2.854.09 3.838-.728.769-.64 1.19-1.552 1.47-2.49.363-1.203.594-2.448.89-3.669.936-3.855 2.006-7.679 2.873-11.548a4.303 4.303 0 0 1-.986.38c-.78.199-1.668.225-2.432-.058-.692-.256-1.3-.713-1.867-1.172a12.609 12.609 0 0 1-1.776-1.735c-.175-.21-.35-.429-.511-.661-.017.054-.03.108-.047.162l-2.014 7.152a.468.468 0 0 1-.243.304c-.338.165-.86-.1-.726-.571l.285-1.017 1.503-5.339c-.312-1.61-.577-3.266-1.112-4.822a11.203 11.203 0 0 0-.133-.363l-.026-.064-.004-.01-.06-.132a3.946 3.946 0 0 0-.286-.52c-.024-.037-.05-.073-.077-.112v-.004c-.012-.012-.02-.022-.03-.034a5.489 5.489 0 0 0-.177-.198 6.602 6.602 0 0 0-.473-.445 12.069 12.069 0 0 0-1.203-.898c-.479-.323-.97-.63-1.466-.925a52.312 52.312 0 0 0-2.906-1.6l1.369 2.563c.303.569-.566 1.076-.87.505l-.573-1.073c-.577-1.083-1.157-2.165-1.734-3.248-.02-.038-.044-.076-.065-.116-.058-.036-.12-.106-.167-.143a50.606 50.606 0 0 0-.348-.282c-.305-.249-.611-.497-.921-.742a40.87 40.87 0 0 0-.467-.369c-.004-.004-.072-.054-.074-.058l-.054-.042-.157-.117c-.222-.158-.33-.433-.181-.685a.503.503 0 0 1 .166-.165 2.641 2.641 0 0 0-.929-.266l-.016.18.01-.004Zm-19.664 15.55a12.893 12.893 0 0 0-.732-1.994 20.403 20.403 0 0 0-2.135-3.635 11.68 11.68 0 0 0-1.158-1.36c-.36-.356-.61-.587-1.053-.812-.577-.294-.068-1.159.507-.866.521.265.976.676 1.379 1.093.975 1.01 1.778 2.2 2.472 3.414.7 1.225 1.32 2.53 1.688 3.896.169.626-.803.888-.97.267l.002-.002Zm22.7 9.975.01-.038c.18-.848.408-1.69.611-2.534l1.17-4.84c.038-.156.076-.313.112-.47h-.169a.51.51 0 0 1-.503-.5V46.72a.51.51 0 0 1 .503-.502h.895c.115-.47.228-.942.342-1.415l.419-1.736c.064-.267.112-.548.193-.812-.012-.035-.02-.07-.032-.105-.04-.116-.055-.138-.115-.26a4.179 4.179 0 0 0-.408-.668c-.008-.01-.083-.086-.109-.12-.01-.012-.022-.022-.032-.032-.077-.046-.16-.083-.242-.12-.486-.231-.983-.446-1.478-.658l-.622-.265-.018-.008h-.002l-.079-.034-.06-.026c-.251-.104-.43-.327-.352-.618.066-.236.368-.455.62-.35l.348.146c.462.194.923.39 1.382.593.432.19.968.353 1.296.708.378.411.688.954.859 1.486.06.188.07.367.028.555-.214.943-.453 1.879-.68 2.817-.075.305-.147.61-.222.914h3.962a.51.51 0 0 1 .503.502v2.005c0 .148-.055.26-.137.34-.002.004-.006.006-.01.01l-.018.017a.467.467 0 0 1-.34.134H43.98l-.278 1.149c-.388 1.61-.776 3.22-1.166 4.83l-.523 2.167c-.151.627-1.121.36-.97-.267v.01Z" fill="#fff"/><path d="M59.755 45.652c-.079.288-.161.575-.24.864-.17.623-1.14.357-.97-.267l.33-1.197c.172-.621.345-1.245.522-1.866.119-.42.223-.849.396-1.25.097-.226.21-.447.324-.663.143-.267.292-.527.439-.792.21-.379.424-.77.497-1.201.072-.435 0-.914-.089-1.343l-.068-.325c-.09-.425-.18-.846-.232-1.28-.032-.27.258-.5.503-.5.022 0 .044.003.065.005-.053-.433-.111-.864-.24-1.297-.054.203-.114.405-.18.606-.097.298-.166.603-.407.822-.37.339-.96.457-1.439.317a1.207 1.207 0 0 1-.364-.179c-.26.313-.62.53-1.054.53-.415 0-.875-.179-1.183-.482-.13.07-.274.118-.425.14.218.237.423.484.616.736.557.726 1.1 1.652 1.012 2.6-.026.271-.21.502-.503.502-.253 0-.529-.23-.503-.501.01-.112.008-.223-.002-.331a2.18 2.18 0 0 0-.221-.738 5.872 5.872 0 0 0-.646-1.018 8.503 8.503 0 0 0-1.038-1.113.497.497 0 0 1-.129-.487c.12-.455.23-.915.332-1.374.141-.631.272-1.136.252-1.736a1.119 1.119 0 0 0-.075-.415.46.46 0 0 0-.054-.092c.03.046-.059-.064-.089-.088.039.032-.082-.045-.11-.063-.004 0-.01-.004-.018-.006-.009.01-.015.02-.029.042-.2.315-.307.69-.434 1.037-.139.381-.29.76-.443 1.135-.332.816-.7 1.61-1.124 2.382-.312.567-1.181.06-.87-.505.506-.919.924-1.871 1.304-2.848.034-.09.069-.18.1-.268.126-.337.244-.678.387-1.007a.554.554 0 0 1-.33.063l.008-.133c-.233-.022-.459-.18-.475-.48a129.56 129.56 0 0 0-.313-4.416 78.914 78.914 0 0 0-.137-1.391c-.026-.233-.053-.468-.083-.7-.026-.205-.032-.253-.064-.471-.052-.353-.105-.788-.433-.889-.072-.022-.054-.015-.133-.022-.237-.018.077.01-.102.008.028 0-.022.024-.01.002a1.131 1.131 0 0 0-.143.425c-.066.546.004 1.117.022 1.665.02.647.04 1.295.065 1.94.048 1.376.112 2.75.2 4.123.043.65.039 1.283-.013 1.932-.05.636-.115 1.276-.089 1.915.026.648.23 1.23.463 1.829.251.647.529 1.285.794 1.926v.006c.262.626.514 1.26.713 1.907.122.4.074.804 0 1.21-.11.61-.298 1.216-.513 1.798a.533.533 0 0 1-.047.096c.182.27.379.52.596.766a12.792 12.792 0 0 0 1.66 1.57c.418.332.96.727 1.43.884 1.139.379 2.83.016 3.456-1.069a.454.454 0 0 1 .503-.236c-.245-.295-.59-.548-.925-.748v.004ZM23.605 40.658c.022.096.02.044 0 0Z" fill="#fff"/><path d="M59.74 35.22c.028-.039.016-.025 0-.005v.004ZM59.992 31.98c.016.012.047.03 0 0Z" fill="#fff"/><path d="M60.68 46.4c.298.355.45.772.268 1.231.183-.459.03-.874-.268-1.23a.452.452 0 0 0-.503.236c-.625 1.084-2.32 1.447-3.456 1.068-.47-.156-1.012-.551-1.43-.884a13.055 13.055 0 0 1-1.66-1.57 7.043 7.043 0 0 1-.596-.766.534.534 0 0 0 .047-.096c.215-.581.402-1.187.512-1.798.073-.405.121-.808 0-1.21-.197-.649-.45-1.28-.708-1.906v-.006c-.267-.642-.547-1.28-.798-1.927-.234-.6-.437-1.18-.463-1.828-.026-.64.038-1.277.089-1.915.05-.65.056-1.283.014-1.933a140.72 140.72 0 0 1-.202-4.122 618.42 618.42 0 0 1-.064-1.94c-.016-.546-.087-1.12-.022-1.665.016-.13.066-.299.143-.425-.014.022.038-.002.01-.002.179.002-.135-.026.102-.008.079.006.06 0 .133.022.328.1.378.537.433.888.032.219.04.267.064.471.03.233.056.468.082.7.05.463.095.928.137 1.392.131 1.47.234 2.943.314 4.416.016.297.242.456.475.48l-.008.132a.553.553 0 0 0 .33-.062c-.143.33-.262.67-.386 1.006l-.101.269a24.06 24.06 0 0 1-1.304 2.847c-.311.566.558 1.073.87.505.424-.772.792-1.568 1.124-2.382.153-.377.302-.753.443-1.134.126-.347.235-.722.434-1.037l.028-.042c.008.002.015.006.019.006.026.018.148.094.11.062.03.024.119.134.089.088.038.056.05.08.054.093.058.144.07.268.074.415.02.6-.11 1.104-.251 1.736-.103.459-.211.918-.332 1.373-.044.167-.004.371.129.487.378.335.726.716 1.038 1.113.223.285.473.662.646 1.019a2.2 2.2 0 0 1 .221.738c.01.108.012.216.002.33-.026.271.25.502.503.502.294 0 .477-.23.503-.502.088-.95-.455-1.874-1.012-2.6-.193-.253-.398-.5-.616-.736.151-.022.294-.07.425-.14.308.303.77.481 1.183.481.434 0 .794-.215 1.054-.53.107.077.227.139.364.18.479.14 1.066.021 1.439-.318.239-.218.31-.525.406-.822.064-.2.127-.403.181-.605-.014-.048-.028-.096-.044-.145.016.049.03.097.044.145.056-.215.107-.431.143-.652.117-.724.332-1.477-.06-2.16-.222-.384-.59-.713-1.035-.81-.386-.083-.758-.007-1.114.133a1.431 1.431 0 0 0-.654-.489 2.487 2.487 0 0 0-1.304-.126 1.728 1.728 0 0 0-.281-.441c-.47-.536-1.25-.712-1.928-.56-.4.09-.738.3-.992.616-.054-.83-.114-1.66-.185-2.49a57.89 57.89 0 0 0-.305-2.888c-.063-.457-.109-.934-.379-1.327-.342-.497-.977-.776-1.573-.61-1.157.321-.903 2.006-.875 2.882.044 1.391.086 2.783.155 4.174.034.722.074 1.444.123 2.163.046.706.016 1.394-.04 2.1-.055.66-.111 1.327-.045 1.988.07.694.304 1.328.56 1.971.297.748.623 1.484.92 2.232.15.373.29.75.417 1.133.029.088.059.176.085.264 0 .006.034.155.038.149.004.068.004.134 0 .202-.01.205-.04.353-.096.602-.053.234-.117.467-.186.7-.301-.173-.782.033-.772.44h-.004c-.185-.92-.39-1.838-.668-2.734-.276-.894-.646-1.722-1.33-2.378-.793-.76-1.738-1.371-2.672-1.947a47.369 47.369 0 0 0-2.953-1.664 48.22 48.22 0 0 0-1.64-.826.643.643 0 0 0-.118-.04l-.109-.203c-.044-.084-.084-.172-.135-.252-.112-.177-.326-.305-.485-.435-.666-.544-1.328-1.1-2.023-1.602-.22-.159-.562-.038-.689.18-.148.253-.04.527.181.686.053.038.105.076.157.116l.055.042.074.058c.157.123.312.245.467.37.308.246.616.492.921.741l.348.283c.047.038.109.108.167.142.02.04.043.078.065.116.577 1.083 1.156 2.166 1.734 3.248l.573 1.073c.304.57 1.173.064.87-.505l-1.369-2.563a52.273 52.273 0 0 1 2.905 1.6c.497.295.988.602 1.467.925.46.31.81.561 1.203.898a5.808 5.808 0 0 1 .65.644c.01.01.018.022.026.034v.004l.08.112c.11.166.202.34.286.52l.06.132.005.01.026.064c.046.12.092.24.133.363.535 1.555.8 3.21 1.112 4.822-.5 1.78-1.002 3.558-1.503 5.339-.094.339-.19.677-.285 1.016-.133.47.388.736.726.572a.462.462 0 0 0 .243-.305l2.014-7.152.046-.162a10 10 0 0 0 .511.662c.53.635 1.133 1.213 1.777 1.734.57.459 1.175.918 1.867 1.173.764.282 1.652.254 2.432.058.338-.086.674-.213.986-.381-.867 3.871-1.937 7.693-2.873 11.548-.296 1.221-.527 2.466-.89 3.67-.28.938-.701 1.85-1.47 2.49-.984.82-2.57 1.01-3.838.727a5.091 5.091 0 0 1-1.097-.373 4.665 4.665 0 0 1-.515-.294 2.648 2.648 0 0 1-.42-.325 2.842 2.842 0 0 1-.67-.838 2.153 2.153 0 0 1-.214-.491 3.118 3.118 0 0 1-.126-.55c-.028-.23-.161-.433-.385-.485a.456.456 0 0 0-.118-.016c-.248 0-.535.23-.503.501.167 1.408.97 2.462 2.054 3.134a.44.44 0 0 0-.36.47c.022.637.044 1.274.064 1.914l.157 4.595.187 5.534.163 4.81c.026.78.03 1.564.079 2.342v.034c.018.56.778.633.963.22l-.104-.645.104.645a.504.504 0 0 0 .042-.22v-.004c-.022-.638-.044-1.273-.064-1.91l-.157-4.596-.187-5.534-.163-4.81c-.026-.78-.03-1.564-.078-2.342v-.034a.528.528 0 0 0-.024-.14c1.547.696 3.478.716 5.005-.016 2.09-1.003 2.634-3.326 3.108-5.387.63-2.735 1.344-5.45 2.04-8.169.574-2.241 1.129-4.487 1.6-6.752a.53.53 0 0 0-.417-.622l-.006-.01Zm-1.05-11.107c-.032.014-.048.014 0 0Zm.09-.05c-.018.02-.02.014 0-.005v.005Zm.019-.023v-.003c.018-.02.028-.035 0 .004Zm.559-2.722c0-.022 0-.042 0 0Zm-.306-.515c.046.03.016.011 0 0Zm-.913 3.137c0-.068-.002-.134.002-.2v-.03c.088-.949.201-1.925.127-2.876l.05-.018c.147-.066.332-.122.527-.104.012.006.084.022.103.028h.004l.01.008c.022.012.044.024.066.038l.026.017a.977.977 0 0 1 .25.33c.004.016.032.094.036.119.006.026.012.054.016.08v.012c0 .062.004.126.002.188a2.404 2.404 0 0 1-.014.173v.024l-.012.08c-.026.158-.054.317-.083.473a8.308 8.308 0 0 1-.215.989c-.046.158-.096.314-.147.47-.03.095-.064.187-.092.283-.002.008-.01.024-.017.04-.02.013-.038.027-.058.039l-.032.016c-.06.016-.12.032-.18.05h-.02c-.04 0-.082-.004-.122 0h-.004c-.004 0-.006-.002-.012-.004-.01-.002-.038-.012-.064-.02a.558.558 0 0 0-.069-.034l-.03-.026c-.008-.01-.014-.023-.018-.026-.004-.01-.01-.018-.014-.029v-.008a.95.95 0 0 0-.018-.07v-.004l.002-.008Zm-2.022.177c.13-.387.102-.78.096-1.177-.008-.528.014-1.053.027-1.58.008-.359.028-.744.004-1.12h.004c.026-.003.074-.007.082-.009.09-.004.18 0 .27.004.066.004.338.066.396.092.089.04.127.07.159.096l.026.023s0 .004.008.012c.01.014.05.104.026.042.039.106.023.07.035.19.01.104.016.207.02.311.032.89-.055 1.786-.133 2.675a.884.884 0 0 0-.018.106c-.02.27-.246.66-.511.681a.878.878 0 0 1-.376-.114.533.533 0 0 1-.141-.116.055.055 0 0 1-.01-.018l.036-.092v-.006Zm-2.354-3.142s.004 0 .01.004c-.028.004-.012-.034-.01-.004Zm-.34-1.201c.149-.239.243-.393.463-.485.328-.139.772-.09 1.018.11.169.138.247.27.291.495.065.323.049.742.047 1.093-.006.79-.012 1.582-.016 2.37 0 .148-.012.262-.053.407a1 1 0 0 1-.106.254c-.042.055-.065.069-.07.075-.015.012-.03.02-.049.03-.004 0-.026.01-.042.014a.347.347 0 0 1-.129 0c.036-.157.074-.313.109-.471.154-.7.346-1.452.275-2.174-.038-.405-.16-.808-.462-1.098-.278-.267-.715-.49-1.109-.398a.93.93 0 0 0-.445.26c.087-.165.177-.326.276-.482h.002Z" fill="#3F4F5F"/><path d="M61.67 36.333c-.03-.248-.183-.463-.439-.495.087.722.16 1.446.521 2.167-.362-.721-.434-1.445-.52-2.167-.023-.002-.043-.006-.065-.006-.245 0-.535.23-.503.501.052.433.14.854.231 1.28l.069.324c.088.43.16.91.088 1.344-.07.433-.285.824-.497 1.2-.147.265-.297.526-.438.792a8.1 8.1 0 0 0-.324.664c-.173.401-.278.83-.396 1.25-.178.62-.349 1.242-.522 1.866l-.33 1.197c-.17.623.801.89.97.266l.24-.864c.185-.671.37-1.345.559-2.017.115-.405.211-.824.358-1.217.348-.93 1.044-1.702 1.304-2.67.31-1.153-.17-2.28-.308-3.415h.002Z" fill="#3F4F5F"/><path d="m54.714 32.157-.01-.004c0-.03-.018.006.01.004Z" fill="#fff"/><path d="m26.205 70.92-.075.136c.246.129.493.255.74.38.59.292 1.032.512 1.622.699.11.036.223.062.338.09l.034.008c.032 0 .065.006.097.004.454-.004.931-.19 1.352-.349.388-.146.774-.328 1.187-.399.42-.07.84-.048 1.26.024.462.08.919.255 1.325.49.473.272.847.645 1.233 1.022.153.149.312.295.477.437.632-.872 1.263-1.746 1.897-2.618l4.116-5.684 2.396-3.31c.067-.09.133-.18.198-.271l.028-.038c.086-.138.074-.187.018-.329a.155.155 0 0 0-.01-.018h-.002c-.27-.217-.562-.405-.841-.606l-3.881-2.79-.372.513c-.234.32-.556.491-.924.365a.402.402 0 0 1-.138-.058.526.526 0 0 1-.111-.08c-1.656-1.192-3.314-2.382-4.97-3.575l-2.725-1.961-.737-.53-.116-.084c-.338-.25-.451-.671-.212-1.036.143-.219.296-.431.453-.642-.93-.668-1.857-1.335-2.786-2.005l-1.354-.974c-.067-.049-.131-.099-.197-.143-.123-.08-.194-.084-.324-.022a.25.25 0 0 0-.043.04l-.026.036c-.63.875-1.263 1.747-1.895 2.619L19.37 55.6c-1.165 1.607-2.33 3.217-3.494 4.825-.49.974-.978 1.949-1.467 2.923l1.087.644 6.474 3.835c1.352.802 2.706 1.604 4.06 2.404a.51.51 0 0 1 .18.686l-.005.002Z" fill="#77AEFF"/><path d="M44.949 60.332c-.89-.66-1.8-1.295-2.7-1.943-.65-.467-1.3-.934-1.95-1.403.013-.016.023-.032.035-.048.144-.2.285-.367.283-.636-.002-.395-.305-.585-.585-.786-.294-.21-.588-.423-.881-.633-1.964-1.412-3.927-2.823-5.891-4.237-.537-.387-1.062-.81-1.621-1.167a.741.741 0 0 0-.912.068c-.105.097-.193.23-.276.355l-.533-.383-3.717-2.674c-.085-.063-.17-.129-.262-.179-.604-.325-1.267-.09-1.654.433-.193.26-.382.528-.571.79l-2.988 4.127-2.06 2.845.576-1.147.716-1.428c.18-.363-.095-.698-.396-.752a.42.42 0 0 0-.471.247l-1.962 3.906-3.1 6.173c-.24.475-.479.952-.716 1.427-.123.243-.067.54.18.686l4.06 2.404 6.475 3.836 1.07.633-1.573 2.863-2.887 5.257-.423.772a697.066 697.066 0 0 1-7.504-4.202 279.695 279.695 0 0 1-5.673-3.293 59.53 59.53 0 0 1-2.02-1.253 13.993 13.993 0 0 1-.682-.47c-.026-.023-.054-.043-.08-.065-.121-.104-.23-.22-.339-.337-1.026-1.087-1.917-2.476-1.88-4.02.018-.796.345-1.552.609-2.291.682-1.907 1.374-3.812 2.056-5.718a510.26 510.26 0 0 0 2.634-7.51c.73-2.144 1.458-4.296 2.068-6.48.247-.883.432-1.773.623-2.672.284-1.339.582-2.763 1.29-3.941.316-.526.634-.8 1.17-1.093a17.277 17.277 0 0 1 1.902-.868c1.56-.622 3.157-1.145 4.74-1.704a44.765 44.765 0 0 0 1.813-.678c.058-.024.116-.044.175-.068.251-.103.43-.333.352-.618a.528.528 0 0 0-.198-.27c-.464.254-.875.563-1.355.803.48-.238.889-.549 1.355-.804-.122-.092-.28-.136-.42-.078-1.473.606-2.996 1.09-4.496 1.622-1.495.528-3.03 1.055-4.42 1.825a3.78 3.78 0 0 0-1.39 1.279c-.39.6-.656 1.283-.878 1.959-.406 1.247-.615 2.538-.911 3.811-.455 1.967-1.113 3.894-1.746 5.809a375.97 375.97 0 0 1-2.626 7.594c-.768 2.164-1.549 4.323-2.325 6.482-.232.64-.463 1.28-.686 1.923-.21.578-.345 1.159-.349 1.768-.004.883.248 1.743.64 2.527.354.71.837 1.355 1.368 1.943.236.262.473.499.753.711.472.357.98.672 1.482.985.19.118.38.232.57.349-.165.515.036 1.072.49 1.411.071.052.146.104.216.157l1.418 1.02 4.042 2.905c-.066 2.328-.13 4.656-.197 6.983l-.028.997c-.008.29.19.449.416.477l-.022-1.14.022 1.14c.272.034.58-.124.59-.477l.197-6.993.008-.28.434.314 6.515 4.685c1.305.94 2.613 1.879 3.919 2.82l.714.513.676.485c.608.395 1.33.18 1.74-.373.065-.086.127-.175.19-.263.088-.12.174-.242.263-.363l.652-.9.03-.042c.72.313 1.45.573 2.148.942l.045.022c.444.239.937.468 1.452.455.409-.01.795-.188 1.075-.477.09-.092.169-.196.235-.308a1.42 1.42 0 0 0 .185-.985c.634.066 1.247-.088 1.68-.694.306-.427.406-.926.282-1.39a1.865 1.865 0 0 0 1.37-.807c.231-.351.344-.784.297-1.193.023.008.043.018.065.028.51.194 1.044.168 1.488-.176.455-.351.751-.967.719-1.542-.032-.578-.533-.987-.954-1.322-.3-.238-.607-.469-.911-.703.253.024.509.03.772.006.924-.086 2.109-.618 2.028-1.72-.038-.514-.432-.99-.889-1.21-.434-.208-.925-.224-1.398-.262a2.913 2.913 0 0 1-1.201-.387c1.386-1.915 2.772-3.83 4.16-5.744 1.145-1.58 2.29-3.16 3.432-4.74l.9-1.241c.06-.082.122-.165.18-.249.401-.587.224-1.325-.331-1.736l-.002-.006Zm-.515.86c-.038-.032-.022-.04 0 0Zm-4.668-4.633c-.122-.05-.185-.105-.213-.155.06.042.12.099.185.133.01.006.018.016.028.02v.002Zm-.169-.31a1.24 1.24 0 0 0-.064.077c.006-.12.175-.192.064-.076Zm-9.123-4.663c.265-.364.529-.731.794-1.096a.686.686 0 0 1-.16-.159c.005.006.015.01.021.016.043.044.107.078.16.115l.12-.165c.016-.022.038-.044.05-.068.063-.124.075.273-.084.295.227.162.455.327.68.489l5.537 3.982 1.91 1.373c-.112.145-.209.309-.311.451l-.515.71-.067.092-3.721-2.676-4.493-3.232c.028-.042.055-.087.083-.125l-.004-.002Zm8.09 6.092-.009.01c-.028 0-.056 0-.082.003a.205.205 0 0 1 .09-.014ZM26.365 86.484l-.222.304-.032.044a.298.298 0 0 1-.03.029c-.141.056-.193.072-.33-.018-.865-.624-1.732-1.245-2.597-1.87l-5.845-4.201-6.297-4.53c-1.229-.884-2.46-1.768-3.69-2.654 1.073.635 2.153 1.259 3.236 1.878a761.886 761.886 0 0 0 9.426 5.295c.057.033.116.065.174.097.233.128.555.062.688-.18l.493-.899c.857.72 1.688 1.476 2.505 2.24.875.82 1.742 1.65 2.563 2.524.15.16.291.337.458.481.115.1.238.188.363.27l-.861 1.19h-.002Zm11.185-5.997c.038 0 .022 0 0 0Zm.61-.82v.008c.006.03 0 .074 0-.008Zm-1.153-4.363c.433.126.881.112 1.324.174.288.04.75.165.766.524.004.116-.082.232-.209.33-.147.113-.326.181-.5.23-.948.256-1.88-.113-2.791-.328l-.232-.19c-.51-.42-1.022-.838-1.533-1.257-.209-.173-.507-.205-.712 0-.177.176-.211.535 0 .71.918.751 1.835 1.505 2.754 2.257.652.533 1.36 1.009 1.982 1.576.083.076.167.154.24.243.005.012.052.074.052.076.006.012.012.018.016.022 0 .046 0 .094-.006.14a1.29 1.29 0 0 0-.026.11.744.744 0 0 1-.055.157c-.082.172-.179.303-.334.379a.44.44 0 0 1-.227.032 4.115 4.115 0 0 1-.145-.04c-.23-.074-.291-.109-.525-.219a15.52 15.52 0 0 1-.704-.359c-.258-.138-.513-.28-.764-.427-.481-.282-1.045.401-.61.788.26.233.517.47.766.714.137.134.345.279.373.475.024.177-.055.395-.141.544a.767.767 0 0 1-.423.332c-.237.082-.285.07-.462.018a3.718 3.718 0 0 1-1.115-.563c-.22-.16-.561-.036-.688.18-.149.255-.038.526.181.686l.083.062.044.034.084.066c.183.145.362.295.531.456.157.15.278.218.288.449.008.188-.072.36-.197.511-.469.571-1.42.086-1.942-.186-.577-.303-1.042.505-.507.866.02.014.039.026.057.04l.008.006.074.062c.135.114.27.239.377.38.104.14.165.22.114.386a.636.636 0 0 1-.235.34c-.244.183-.557.083-.829-.03-.376-.154-.714-.388-1.084-.553-.74-.33-1.542-.551-2.24-.97-.408-.247-.712-.644-1.05-.993-1.579-1.63-3.245-3.212-5.003-4.653l.827-1.508c.961-1.752 1.925-3.505 2.887-5.257l.102-.188a23.481 23.481 0 0 0 1.756.852c.47.2.97.425 1.487.453.861.044 1.688-.417 2.48-.68.347-.114.556-.132.94-.1.345.028.735.138 1.065.303.438.216.774.52 1.118.86.364.363.75.702 1.17 1.002.408.293.862.542 1.347.682l-.004-.006Zm-8.142-3.072c.036.002.043.008 0 0ZM44.428 61.54c-.008.014-.018.026-.028.038-.065.092-.131.18-.198.27l-2.396 3.311-4.116 5.684c-.632.872-1.263 1.746-1.897 2.618a9.96 9.96 0 0 1-.477-.437c-.388-.376-.76-.75-1.233-1.022a4.128 4.128 0 0 0-1.326-.49 3.64 3.64 0 0 0-1.26-.023c-.412.07-.798.252-1.186.399-.42.158-.896.342-1.352.349-.032 0-.065-.005-.097-.005-.01 0-.02-.004-.034-.008-.115-.028-.225-.054-.338-.09-.59-.186-1.03-.407-1.621-.7a51.05 51.05 0 0 1-.74-.379l.073-.136a.51.51 0 0 0-.18-.686c-1.352-.802-2.706-1.603-4.06-2.403l-6.474-3.836-1.087-.644 1.467-2.923 3.494-4.826 3.867-5.339c.632-.872 1.265-1.744 1.895-2.618l.026-.036a.238.238 0 0 1 .043-.04c.13-.063.199-.057.323.022.069.044.133.094.198.142.45.325.903.65 1.354.974.93.668 1.856 1.336 2.786 2.005-.155.21-.31.423-.453.642-.24.365-.126.784.212 1.036l.116.085.737.529c.909.654 1.816 1.307 2.726 1.96 1.655 1.192 3.313 2.383 4.969 3.576a.606.606 0 0 0 .11.08c.043.03.091.048.14.058.367.126.69-.044.923-.365l.372-.513 3.88 2.79c.28.201.572.392.842.606h.002l.01.02c.056.143.068.19-.018.329l.006-.004Z" fill="#3F4F5F"/><path d="M31.13 50.348s-.019-.01-.023-.016c.063.08.115.13.161.158l.02-.028c-.05-.036-.116-.07-.158-.114ZM39.533 56.328c.022-.027.042-.053.065-.077.11-.114-.059-.044-.065.077ZM39.767 56.559c-.01-.004-.018-.016-.028-.02-.065-.035-.125-.09-.185-.133.028.05.092.105.213.155v-.002ZM31.373 50.521c.159-.022.148-.417.084-.294-.012.024-.034.046-.05.068l-.12.164.007.006.077.054.002.002ZM38.563 57.678a.237.237 0 0 0-.09.014c.026-.004.054-.004.082-.004l.008-.01ZM38.606 57.62l.066-.092c.171-.237.342-.474.515-.71.103-.142.202-.307.312-.451-.638-.457-1.273-.916-1.911-1.374l-5.537-3.982c-.227-.162-.454-.326-.68-.489-.028.004-.064-.006-.104-.032-.266.365-.53.732-.795 1.097-.028.038-.054.082-.082.124l4.492 3.232c1.241.892 2.48 1.785 3.722 2.677h.002Z" fill="#fff"/><path d="m31.296 50.467-.008-.006-.02.028c.04.026.076.036.104.032l-.076-.054ZM42.014 57.375l.523-2.167 1.167-4.83.277-1.15h4.688c.147 0 .26-.053.34-.134l.018-.016c.002-.004.006-.006.01-.01a.458.458 0 0 0 .137-.34v-2.005a.51.51 0 0 0-.503-.502H44.71l.221-.914c.227-.938.467-1.875.68-2.817a1.025 1.025 0 0 0-.028-.555 4.142 4.142 0 0 0-.86-1.486c-.327-.355-.862-.517-1.295-.708a84.46 84.46 0 0 0-1.382-.593c-.117-.048-.231-.098-.348-.147-.251-.104-.553.113-.62.351-.08.29.101.512.352.618l.06.026.08.032h.001l.018.008.622.265c.495.212.992.427 1.479.657.08.038.163.075.241.12.012.01.024.02.032.033l.109.12c.139.172.296.443.408.668.063.124.075.144.115.26.012.032.02.07.032.105-.08.264-.129.545-.193.812-.139.579-.28 1.156-.418 1.736-.115.471-.228.942-.342 1.415h-.896a.51.51 0 0 0-.503.502v2.005c0 .27.232.5.503.5h.17c-.039.157-.077.314-.113.47l-1.17 4.84c-.202.844-.43 1.684-.61 2.534a.272.272 0 0 1-.01.038c-.152.628.818.895.969.267v-.008Zm2.643-15.234-.012.052v.004c-.004-.03 0-.054.012-.056Zm-1.378 5.083h4.885v1.002H43.28v-1.002Z" fill="#3F4F5F"/><path d="M42.267 17.538a.528.528 0 0 0 .47-.365c.62-1.706 1.071-3.537.902-5.363-.153-1.65-.775-3.288-1.714-4.654-.962-1.4-2.356-2.45-3.909-3.121-1.553-.676-3.311-1.091-5.014-1.029-1.949.07-3.872.806-5.067 2.394-.13.17-.075.417.058.577a.447.447 0 0 0 .123.109c.257.15.525.038.688-.18.885-1.176 2.396-1.757 3.826-1.875 1.543-.127 3.143.194 4.58.748 1.395.537 2.703 1.401 3.629 2.584a8.955 8.955 0 0 1 1.758 4.13c.264 1.843-.205 3.691-.829 5.414-.087.236.078.507.302.597a2.045 2.045 0 0 0-.4-.014.532.532 0 0 0-.113.02c-.004-.018-.006-.036-.014-.054a12.061 12.061 0 0 1-.485-1.355c-.127-.46-.213-.929-.31-1.394-.054-.257-.372-.429-.62-.35a.515.515 0 0 0-.352.617c.097.465.183.934.31 1.393a10.705 10.705 0 0 0 .352 1.018l-.762.025-.215.006c-.242.008-.471.19-.5.435a.616.616 0 0 0-.042.174c-.1.995-1.175 1.58-2.134 1.486-1.008-.1-1.827-.908-1.759-1.903.018-.27-.245-.501-.503-.501a.48.48 0 0 0-.165.03.522.522 0 0 0-.08-.012l-1.503-.128-.217-.018a.356.356 0 0 0-.08.004c-.02-.002-.04-.006-.061-.006-.296 0-.475.23-.503.5-.099.973-1.157 1.53-2.112 1.44-.497-.046-1.004-.248-1.368-.593-.357-.337-.527-.738-.495-1.203a.466.466 0 0 0-.195-.39.526.526 0 0 0-.304-.246c-.4-.132-.8-.262-1.201-.395-.059-.018-.115-.038-.173-.056a.451.451 0 0 0-.155-.018c1.072-1.197 2.03-2.504 2.667-3.981a.697.697 0 0 0 .057-.26.473.473 0 0 0-.236-.426c-.21-.124-.579-.07-.688.18-.748 1.735-1.927 3.208-3.23 4.558a.72.72 0 0 0-.053.066h-.052a.45.45 0 0 0 .06-.273c-.07-1.12-.123-2.246-.165-3.368-.03-.798-.12-1.604.127-2.376a4.436 4.436 0 0 1 1.056-1.72c.489-.502 1.084-.9 1.785-1.019.267-.044.418-.375.352-.618a.47.47 0 0 0-.151-.238.57.57 0 0 0-.469-.11c-1.465.244-2.712 1.525-3.303 2.829-.367.808-.457 1.591-.431 2.47a151.209 151.209 0 0 0 .191 4.15c.006.088.03.162.067.226-.19.069-.373.165-.54.303-.408.333-.657.844-.786 1.346-.306 1.189-.038 2.345.565 3.392.402.696.93 1.335 1.66 1.69.026.309.066.618.109.922.134.963.33 1.921.698 2.823.082.203.17.403.265.602a.376.376 0 0 0-.066.156l-.217 1.472c-.234-.142-.562-.086-.705.166l-.466.828-.006-.012a.433.433 0 0 0-.405-.248c-.203-.08-.444-.036-.575.216-.364.706-.714 1.42-1.067 2.132l-.12.242c-.085.173-.171.345-.258.515-.134.27-.36.562-.3.873.017.082.04.164.06.244l.814 3.346.263 1.085c.153.628 1.123.361.97-.267-.332-1.36-.662-2.724-.994-4.086l-.096-.397c.414-.81.812-1.628 1.219-2.44.223.417.444.834.668 1.25.794 1.481 1.593 2.959 2.394 4.436a.402.402 0 0 0-.18.069c-.633.443-1.265.888-1.899 1.33-.384.272-.77.54-1.154.81-.318.223-.616.42-.733.82-.092.328-.066.673-.016 1.003.022.143.043.285.11.411.108.199.24.39.357.58l1.587 2.582 1.195 1.945c.338.55 1.207.046.87-.505l-2.53-4.116c-.172-.283-.347-.566-.52-.849-.012-.02-.037-.078-.063-.116 0-.006-.002-.01-.004-.016a2.537 2.537 0 0 1-.022-.12l-.004-.018a1.878 1.878 0 0 1-.016-.313c0-.036 0-.07.006-.106v-.01l.002-.012c.018-.08.036-.117.032-.112v-.005a.079.079 0 0 0 .022-.018l.131-.09 1.016-.712 2.139-1.5a.685.685 0 0 0 .118-.11c.968 1.78 1.942 3.56 2.925 5.332.984 1.77 1.976 3.536 3.002 5.283.618 1.05 1.213 2.167 1.992 3.111.038.048.078.095.123.137.263.266.611.14.77-.102a.459.459 0 0 0-.06-.606c-.044-.044-.083-.09-.123-.136l-.008-.01c-.026-.037-.054-.07-.08-.107a16.07 16.07 0 0 1-.39-.571 43.215 43.215 0 0 1-.608-.966c.004-.024.008-.047.008-.073.016-2.392.008-4.791.187-7.177.02-.28.05-.556.078-.832v-.004l.01-.065c.008-.054.016-.108.027-.162.014-.07.03-.142.048-.21.16.02.32.028.473.036.199.01.398.01.597-.002.135-.008.276-.02.41-.047a9.728 9.728 0 0 1 .244.528l.03.07c.05.118.099.236.147.355.225.557.44 1.12.652 1.684.45 1.203.885 2.414 1.308 3.629.148.431.297.86.438 1.293-.016.303-.032.608-.05.91a56.109 56.109 0 0 1-.181 2.256c-.034.33-.07.664-.113.994l-.02.15-.028.203c-.02.137-.043.273-.065.41a.586.586 0 0 0 .077.414c.06.095.149.167.273.2.242.067.574-.081.62-.35.24-1.44.38-2.9.465-4.363l.016-.305a88.66 88.66 0 0 0 .108-3.795c.033-3.108-.03-6.28-.593-9.345-.205-1.119-.47-2.34-1.185-3.256-.115-.148-.326-.172-.503-.118a.655.655 0 0 0-.062-.085l.199-2.175.008-.082c1.402-1.632 2.163-3.677 2.617-5.752 1.087-.137 1.863-1.201 2.284-2.128.452-.994.833-2.386.231-3.4-.24-.405-.623-.648-1.058-.746l.004-.004ZM23.605 40.66c.02.044.022.096 0 0Zm12.476-.832a.734.734 0 0 1-.01-.13c0-.05.006-.098.024-.147a.726.726 0 0 0-.012.277h-.002Zm.173-.479h-.002l-.017.01a.29.29 0 0 1 .023-.016l-.004.006Zm.207-1.026c-.006.07-.014.138-.022.206 0 .016-.016.144-.008.062.008-.08-.004.026-.006.042-.02.135-.043.269-.075.4-.02.085-.046.17-.074.254a.737.737 0 0 0-.073.062.603.603 0 0 1-.064.014c.01 0 .02 0 .032-.002a.3.3 0 0 0-.042.004h-.004a.359.359 0 0 1-.059.006 4.354 4.354 0 0 1-.439.014c-.112 0-.224-.006-.335-.014-.052-.004-.107-.008-.159-.014a.842.842 0 0 1-.07-.008c-.08-.014-.161-.026-.242-.046a.392.392 0 0 0-.068-.177c-.27-.377-.507-.773-.724-1.182-.131-.245-.252-.494-.365-.748-.018-.038-.034-.078-.05-.117l-.008-.022-.087-.216a8.903 8.903 0 0 1-.156-.441.563.563 0 0 0-.069-.135c.105-.074.211-.148.324-.222.225-.15.324-.441.181-.686a.543.543 0 0 0-.05-.068c-.153-.174-.437-.247-.638-.112a18.27 18.27 0 0 0-3.36 2.869.51.51 0 0 0 0 .71c.185.184.53.202.712 0 .475-.524.994-1.007 1.531-1.466.166-.142.322-.273.48-.4a11.08 11.08 0 0 0 1.416 2.742c.022.032.05.062.078.088 0 .072.018.142.048.206a.527.527 0 0 0-.05.119c-.123.417-.149.868-.187 1.297-.054.627-.085 1.259-.109 1.889a131.17 131.17 0 0 0-.086 3.975 247.355 247.355 0 0 1-2.388-4.202 614.534 614.534 0 0 1-3.221-5.856c-.897-1.648-1.789-3.3-2.676-4.953-.243-.45-.475-.912-.714-1.37l.006-.01.03-.053.423-.75c.937.812 1.987 1.498 3.048 2.131a75.515 75.515 0 0 0 3.953 2.143 149.486 149.486 0 0 1 1.913.985c.191.102.376.07.515-.026a.555.555 0 0 0 .447-.024c.05-.024.1-.05.149-.076a.549.549 0 0 0 .239.367l.097.066.034.026c.058.048.117.098.173.15.122.114.24.235.35.361a8.686 8.686 0 0 1 .595.754c-.024.483-.044.966-.09 1.447l-.006.007Zm-10.383-8.748c.052-.347.102-.696.155-1.043.169.249.348.487.545.712.612.702 1.388 1.265 2.205 1.704 1.474.794 3.132 1.213 4.81.995a6.97 6.97 0 0 0 3.297-1.348l-.116 1.29-.03.34a9.55 9.55 0 0 1-.298.341 10.703 10.703 0 0 1-1.283 1.199l-.069.052-.109.08a5.057 5.057 0 0 1-.776.464l-.02.012c-2.481-1.307-5.04-2.49-7.354-4.088a16.683 16.683 0 0 1-.957-.712v.002Zm11.988 3.547c.022.042.042.084.063.128l.044.1c.04.096.076.193.112.29.18.506.308 1.031.415 1.557.278 1.365.4 2.662.495 4.092.127 1.923.163 3.853.13 5.782a98.163 98.163 0 0 0-1.472-3.91c-.187-.469-.372-.944-.608-1.391-.012-.024-.028-.044-.044-.066.175-.391.211-.872.254-1.265.01-.099.018-.197.026-.295.159.204.324.407.499.6.183.2.525.184.712 0 .2-.199.183-.508 0-.71-.497-.544-.88-1.131-1.338-1.755-.44-.597-.903-1.186-1.52-1.61.275-.204.538-.43.788-.66.434-.396.837-.83 1.203-1.288l.028.04a3.28 3.28 0 0 1 .213.363v-.002Zm-.24-.403.013.016-.012-.016Zm2.87-9.895c-.026.008-.087.008.004 0h-.004Zm.988-.72c.016-.02.04-.05 0 0Zm.9-2.153c-.001.016-.003.026 0 0Zm.02-.198c-.003.056-.01.112-.015.168v.012l-.01.068a5.045 5.045 0 0 1-.374 1.221l-.08.167a4.745 4.745 0 0 1-.394.654l-.05.065-.003.004a2.858 2.858 0 0 1-.394.413l-.06.05-.007.006-.01.009a2.07 2.07 0 0 1-.28.166h-.004c-.022.01-.044.02-.066.026-.05.016-.103.024-.153.04-.022 0-.047.004-.069.004a.474.474 0 0 0-.384.199c-.177.042-.336.168-.374.35-.26 1.236-.654 2.529-1.243 3.696a9.9 9.9 0 0 1-.62 1.06c-.893 1.322-2.123 2.352-3.81 2.731-1.407.317-2.902.09-4.197-.517-.745-.351-1.463-.778-2.066-1.342-.688-.641-1.183-1.451-1.588-2.293-.444-.924-.676-1.917-.835-2.924a10.648 10.648 0 0 1-.144-1.431c-.006-.385-.369-.54-.656-.463-.423-.219-.757-.674-1.002-1.065-.262-.417-.493-.854-.6-1.331l-.03-.146a2.795 2.795 0 0 0-.014-.085 3.972 3.972 0 0 1 .004-.936c.034-.215.089-.423.165-.625l.012-.033.016-.03c.022-.044.043-.086.067-.13.024-.042.048-.082.074-.122.012-.02.026-.038.04-.059l.006-.008c.035-.04.073-.078.109-.116l.05-.046.008-.006a1.09 1.09 0 0 1 .131-.08c.018-.01.036-.018.054-.026.004 0 .006 0 .012-.004a.988.988 0 0 1 .576-.018.485.485 0 0 0 .406-.08.449.449 0 0 0 .389-.147l.245-.26c.01.212.145.395.362.467l1.133.373c.058 1.457 1.497 2.43 2.87 2.546 1.345.114 2.618-.67 3.01-1.917l1.23.104c.175 1.332 1.41 2.294 2.746 2.408 1.41.12 2.734-.763 3.07-2.105l1.098-.034.215-.006a.486.486 0 0 0 .141-.026c.093.098.22.163.358.154.099-.006.196-.006.292 0 .016.005.095.017.117.023.03.008.094.032.102.034.027.012.05.026.077.038.02.01.04.026.054.036.022.022.044.044.069.064l.026.02.014.028c.022.038.042.076.066.112l.014.022.002.01c.034.1.063.2.085.305l.008.034v.018c.004.052.01.103.012.155.006.12.004.242-.004.363l.002-.012Z" fill="#3F4F5F"/><path d="M48.164 48.225v-1.002h-4.885v1.002h4.885Z" fill="#fff"/><path d="M17.625 42.973c-.694-1.215-1.496-2.404-2.472-3.414-.405-.417-.857-.828-1.378-1.093-.576-.293-1.085.571-.507.866.442.225.694.455 1.052.812.422.421.805.88 1.159 1.36a20.662 20.662 0 0 1 2.134 3.634c.294.646.548 1.312.733 1.995.167.622 1.138.36.97-.266-.369-1.366-.988-2.67-1.688-3.896l-.003.002Z" fill="#3F4F5F"/><path d="M36.254 39.35h.002l.004-.008-.022.016a.062.062 0 0 0 .016-.008Z" fill="#3B87F7"/><path d="m38.771 52.819.065-.41c.01-.067.02-.134.028-.202a32.544 32.544 0 0 0 .133-1.145c.076-.75.134-1.503.18-2.255.019-.303.035-.606.05-.91-.14-.433-.289-.865-.438-1.294a155.97 155.97 0 0 0-1.308-3.629 70.987 70.987 0 0 0-.651-1.684l-.147-.355-.03-.07-.06-.14a8.562 8.562 0 0 0-.184-.387c-.135.026-.275.036-.41.046-.2.014-.399.012-.598.002-.153-.008-.314-.016-.473-.036-.02.07-.036.14-.048.21-.01.055-.018.109-.026.163l-.01.064v.004c-.03.277-.058.553-.08.832-.178 2.386-.17 4.788-.188 7.178 0 .026-.004.048-.008.072.198.325.399.648.608.966.127.193.253.385.39.572l.08.106.009.01c.04.046.078.094.123.136a.461.461 0 0 1 .06.606l2.762 2.785.247-.824a.588.588 0 0 1-.076-.415v.004Z" fill="#77AEFF"/><path d="m40.264 48.526-.044-.106-.016.305.06-.199Z" fill="#3B87F7"/><path d="M35.959 36.123a5.387 5.387 0 0 0-.35-.361 3.14 3.14 0 0 0-.174-.15l-.034-.027c-.032-.022-.062-.046-.096-.066a.549.549 0 0 1-.24-.367c-.05.026-.098.053-.149.076a.563.563 0 0 1-.446.025.478.478 0 0 1-.515.026 3.47 3.47 0 0 1-.119-.063l-.084.085a.525.525 0 0 1 .05.068c.143.245.044.535-.181.686-.113.076-.22.15-.324.222a.566.566 0 0 1 .068.134c.049.149.1.295.157.441.028.073.056.145.087.217l.008.02.05.118c.113.253.235.504.364.748.218.41.457.806.724 1.183.039.054.06.114.069.177.08.02.16.034.241.046l.07.008c.053.006.107.01.16.014.112.008.225.012.336.014.108 0 .215 0 .324-.006l.114-.008c-.014 0-.002-.002.07-.008l.065-.014a.526.526 0 0 1 .072-.062c.027-.085.055-.169.075-.255.03-.132.054-.267.074-.399.002-.016.014-.122.006-.042-.008.082.006-.046.008-.062.008-.068.017-.139.023-.207.048-.481.066-.964.09-1.447a15.577 15.577 0 0 0-.28-.375c-.07-.09-.21-.26-.316-.38l.002-.01Z" fill="#77AEFF"/><path d="M36.174 39.363c-.014 0-.022 0-.032.002-.004 0-.006 0-.01.002.014 0 .028-.004.042-.004ZM36.07 39.7h.002c0-.051.008-.101.02-.147a.407.407 0 0 0-.024.146h.002ZM36.07 39.373c.012 0 .038 0 .059-.004h.004c-.012 0-.023 0-.035.002-.01 0-.018 0-.028.002Z" fill="#3B87F7"/><path d="M36.08 39.828a.954.954 0 0 1-.008-.13h-.002c0 .04.004.081.01.13Z" fill="#fff"/><path d="M36.07 39.373s.019 0 .029-.002c.012 0 .022-.002.034-.004.004 0 .006 0 .01-.002-.074.006-.084.008-.07.008h-.002Z" fill="#3F4F5F"/><path d="M40.696 22.822h.004c-.089.008-.028.008-.004 0ZM42.586 19.95c-.004.025-.002.015 0 0Z" fill="#fff"/><path d="M42.182 18.548s-.072-.026-.102-.034c-.022-.006-.1-.018-.117-.022a2.029 2.029 0 0 0-.291 0 .456.456 0 0 1-.359-.154.56.56 0 0 1-.14.026l-.216.006-1.098.034c-.336 1.341-1.662 2.226-3.07 2.105-1.336-.114-2.573-1.076-2.746-2.408l-1.23-.104c-.392 1.247-1.665 2.029-3.01 1.917-1.373-.117-2.812-1.089-2.87-2.547l-1.133-.373a.508.508 0 0 1-.362-.467l-.245.261a.449.449 0 0 1-.389.146.485.485 0 0 1-.406.08 1.004 1.004 0 0 0-.588.023l-.054.026a1.729 1.729 0 0 0-.139.086l-.05.046a1.97 1.97 0 0 0-.109.116l-.006.006c-.014.022-.028.04-.04.06a1.646 1.646 0 0 0-.14.253l-.017.03a3.367 3.367 0 0 0-.177.658c0 .01-.006.032-.012.104-.006.054-.008.106-.012.16a3.974 3.974 0 0 0 .02.672l.014.084c.008.05.018.098.03.147.109.477.34.914.6 1.33.245.392.58.847 1.002 1.066.288-.075.65.078.656.463.008.479.07.96.144 1.431.16 1.009.39 2.001.835 2.924.407.842.9 1.652 1.588 2.293.603.562 1.322.99 2.066 1.341 1.296.61 2.79.835 4.197.518 1.688-.381 2.915-1.412 3.81-2.731.227-.337.434-.692.62-1.06.59-1.165.983-2.46 1.243-3.696.038-.182.197-.309.374-.35a.474.474 0 0 1 .384-.2.784.784 0 0 0 .069-.003c.05-.016.102-.022.153-.04l.066-.024h.004c.046-.028.095-.05.14-.078.05-.029.093-.06.14-.09l.01-.009.008-.006c.02-.016.04-.032.058-.05.097-.084.187-.174.272-.268.042-.047.082-.097.122-.145l.005-.004.048-.066a4.732 4.732 0 0 0 .394-.654c.028-.054.055-.11.08-.166.007-.012.039-.086.05-.11.097-.235.178-.476.242-.72.033-.13.059-.26.083-.391.004-.022.008-.044.01-.068v-.012a3.139 3.139 0 0 0 .008-.686v-.018c0-.008-.004-.018-.008-.034a3.117 3.117 0 0 0-.085-.305c0-.004 0-.006-.002-.01a4.903 4.903 0 0 1-.095-.162.327.327 0 0 1-.025-.02c-.025-.02-.047-.043-.069-.065-.014-.01-.034-.026-.054-.036a.906.906 0 0 0-.077-.038l-.002.012ZM32.12 22.552a.355.355 0 0 1 .105-.16.385.385 0 0 1 .16-.104.38.38 0 0 1 .194-.044c.022.002.046.003.068.006l.48.046c.09 0 .174.024.253.068l.102.078a.5.5 0 0 1 .13.22l.017.133a.372.372 0 0 1-.044.192.354.354 0 0 1-.105.16.386.386 0 0 1-.16.105.38.38 0 0 1-.194.044l-.068-.006-.479-.046a.51.51 0 0 1-.254-.068l-.102-.078a.501.501 0 0 1-.129-.221l-.018-.132a.372.372 0 0 1 .044-.193Zm2.662 3.683c-1.352.754-3.287.606-4.446-.435-.203-.182-.185-.525 0-.71.199-.198.509-.18.712 0 .205.185.509.355.77.442.157.052.318.092.481.12l.069.012.106.012a4.247 4.247 0 0 0 .835-.01c.014 0 .02 0 .028-.002.008 0 .017-.004.03-.006.071-.014.141-.024.21-.04a3.184 3.184 0 0 0 .509-.155l.01-.006c.058-.028.117-.056.173-.088.565-.315 1.072.552.507.866h.006Z" fill="#fff"/><path d="M41.683 22.104c.04-.05.016-.02 0 0ZM38.956 14.966c-1.28-.395-2.473-1.005-3.458-1.919-.059-.054-.113-.11-.17-.166l-.273.01c.056.317-.201.71-.618.613-1.036-.236-2.048-.625-2.909-1.259a8.792 8.792 0 0 1-1.45-1.373 12.917 12.917 0 0 1-.507-.632l-.151.247-.787 1.283a.66.66 0 0 1-.056.259c-.638 1.48-1.596 2.784-2.668 3.982a.407.407 0 0 1 .155.018l.173.056c.4.132.8.262 1.201.395a.527.527 0 0 1 .304.244.459.459 0 0 1 .195.391c-.032.465.139.866.495 1.203.364.345.871.548 1.368.594.958.09 2.014-.467 2.113-1.44.028-.27.207-.501.502-.501.02 0 .04.004.06.006a.362.362 0 0 1 .081-.004l.218.018 1.502.128c.029.002.055.008.08.012a.49.49 0 0 1 .166-.03c.257 0 .52.23.503.501-.069.997.75 1.805 1.758 1.903.962.094 2.034-.491 2.135-1.485a.736.736 0 0 1 .042-.175c.028-.243.257-.427.499-.435l.215-.006.763-.024a13.334 13.334 0 0 1-.266-.736l-.88-1.7a.458.458 0 0 1-.337.018l.002.004Zm-9.033 2.827c-.648 0-.648-1.003 0-1.003s.648 1.003 0 1.003Zm2.106-1.917c-.133.25-.453.295-.688.18a5.041 5.041 0 0 1-.103-.047 3.187 3.187 0 0 0-.853-.207c-.06-.006-.122-.008-.183-.012a3.745 3.745 0 0 0-.509.016c-.018 0-.038.004-.056.006a3.7 3.7 0 0 0-.74.207c-.26.108-.543-.119-.62-.351-.09-.281.109-.516.352-.618 1.01-.42 2.247-.34 3.223.138.252.125.3.46.181.686l-.004.002Zm4.555 2.484c-.648 0-.648-1.002 0-1.002s.648 1.002 0 1.002Zm2.165-1.758c-.123.232-.467.32-.688.18a3.366 3.366 0 0 0-.403-.216l-.165-.062a3.417 3.417 0 0 0-.513-.133c-.028-.006-.058-.01-.086-.014l-.052-.006c-.023-.002-.049-.004-.055-.006l-.086-.008c-.059-.004-.117-.006-.173-.008-.115-.002-.228 0-.342.008-.057.004-.111.01-.167.016.11-.01-.03.006-.069.012a2.701 2.701 0 0 0-.306.075c-.27.08-.535-.097-.62-.351-.084-.26.1-.544.353-.618 1.042-.307 2.28-.138 3.197.445.237.15.312.437.18.686h-.005Z" fill="#fff"/><path d="M38.569 15.918c-.916-.583-2.155-.752-3.197-.445-.252.074-.437.355-.352.617.082.255.348.43.62.351.1-.03.203-.054.305-.074.038-.008.18-.022.069-.012.056-.004.11-.012.167-.016.114-.008.227-.01.342-.008.058 0 .116.004.173.008.028.002.058.004.086.008l.054.006.053.006.086.014a3.303 3.303 0 0 1 .513.132c.057.018.11.04.165.06.026.015.053.025.08.039.111.054.218.114.323.18.22.14.565.052.688-.18a.511.511 0 0 0-.181-.686h.006ZM31.847 15.19c-.974-.477-2.213-.559-3.223-.138-.241.1-.442.337-.352.617.075.231.358.46.62.351.227-.094.46-.154.702-.2l.038-.006.056-.006.14-.012a3.808 3.808 0 0 1 .553.008c.014 0 .1.012.122.014a3.386 3.386 0 0 1 .612.148l.119.044.102.048c.236.117.555.07.688-.18.12-.226.073-.561-.18-.686l.003-.002ZM36.58 17.357c-.647 0-.647 1.003 0 1.003.648 0 .648-1.003 0-1.003ZM29.921 16.791c-.647 0-.647 1.003 0 1.003.648 0 .648-1.003 0-1.003ZM32.221 23.1l.103.079a.49.49 0 0 0 .253.068l.48.046.068.006a.375.375 0 0 0 .193-.044.357.357 0 0 0 .16-.104.383.383 0 0 0 .105-.16.376.376 0 0 0 .044-.193l-.018-.133a.5.5 0 0 0-.128-.22l-.103-.078a.491.491 0 0 0-.253-.069l-.48-.046-.068-.006a.376.376 0 0 0-.193.044.356.356 0 0 0-.16.105.384.384 0 0 0-.105.16.377.377 0 0 0-.045.192l.019.133a.501.501 0 0 0 .128.22ZM34.274 25.37c-.056.032-.114.06-.173.088l-.01.006c-.032.014-.066.026-.099.038a3.298 3.298 0 0 1-.41.117c-.07.016-.14.026-.21.04l-.03.006-.027.002a1.646 1.646 0 0 1-.1.01c-.166.014-.335.02-.504.014a4.375 4.375 0 0 1-.231-.014l-.107-.012c-.012-.002-.052-.008-.069-.012a3.314 3.314 0 0 1-.48-.12 2.34 2.34 0 0 1-.77-.442c-.202-.18-.514-.198-.713 0-.185.185-.203.528 0 .71 1.157 1.04 3.092 1.187 4.446.435.566-.314.059-1.18-.507-.866h-.006Z" fill="#3F4F5F"/><path d="M27.24 7.394c-.701.116-1.298.517-1.785 1.018a4.46 4.46 0 0 0-1.057 1.72c-.247.774-.157 1.578-.126 2.376.042 1.123.094 2.246.165 3.369a.475.475 0 0 1-.06.27h.052c.016-.02.032-.042.052-.064 1.306-1.35 2.484-2.825 3.23-4.557.11-.25.478-.303.689-.18a.466.466 0 0 1 .235.426l.787-1.283.15-.246a16.45 16.45 0 0 1-.277-.375c-.159-.22-.036-.56.181-.686.25-.146.53-.04.688.18.545.756 1.177 1.516 1.924 2.056.786.567 1.675.906 2.619 1.12a.429.429 0 0 1 .35.353l.274-.01c-.886-.874-1.562-1.943-2.149-3.031-.308-.57.561-1.075.87-.506.577 1.07 1.224 2.114 2.114 2.954.863.814 1.925 1.353 3.06 1.704.486.15.424.782.07.948l.88 1.7a7.432 7.432 0 0 1-.087-.282c-.127-.46-.214-.928-.31-1.394a.514.514 0 0 1 .352-.617c.247-.08.565.092.62.35.096.466.183.935.31 1.394.126.463.305.91.484 1.355.008.018.01.037.014.055a.701.701 0 0 1 .113-.02c.135-.008.268 0 .4.014-.223-.09-.388-.361-.301-.598.623-1.722 1.092-3.573.828-5.413a8.955 8.955 0 0 0-1.758-4.13c-.927-1.183-2.233-2.048-3.63-2.585-1.436-.553-3.037-.874-4.578-.748-1.43.119-2.942.7-3.827 1.875-.163.216-.43.329-.688.18a.445.445 0 0 1-.122-.108l-.554.56a.472.472 0 0 1 .151.238c.067.243-.082.572-.352.618h-.002Z" fill="#77AEFF"/><path d="M38.955 14.966c.131.04.246.028.338-.018.352-.166.417-.798-.07-.948-1.135-.351-2.197-.89-3.06-1.704-.89-.84-1.537-1.885-2.114-2.954-.306-.567-1.175-.062-.87.506.588 1.088 1.264 2.157 2.15 3.031.055.056.11.112.168.166.984.915 2.179 1.524 3.458 1.92v.001ZM31.529 12.243c.861.634 1.873 1.023 2.91 1.26.416.096.673-.297.617-.614a.427.427 0 0 0-.35-.353c-.944-.216-1.831-.553-2.62-1.12-.746-.54-1.378-1.3-1.923-2.056-.159-.22-.439-.325-.688-.18-.217.126-.34.465-.181.686a16.675 16.675 0 0 0 .784 1.006c.433.507.908.974 1.451 1.373v-.002Z" fill="#3F4F5F"/></g><defs><clipPath id="a"><path fill="#fff" d="M0 0h64v59H0z"/></clipPath></defs></svg>