<svg xmlns:xlink="http://www.w3.org/1999/xlink" xmlns="http://www.w3.org/2000/svg" width="64" height="59" fill="none"><g clip-path="url(#a)"><g clip-path="url(#b)"><path d="M19.137 29.075a.513.513 0 0 1-.032.42l-1.202 2.317.082.34c.313 1.273.623 2.547.935 3.821.161.66-.862.937-1.024.28-.064-.263-.13-.526-.193-.79l-.593-2.425.013-.13c-.643.269-1.283.551-1.912.854a33.379 33.379 0 0 0-3.816 2.15c-1.132.748-2.169 1.832-2.62 3.125-.235.678-.362 1.403-.562 2.093-.231.798-.482 1.59-.74 2.38a243.376 243.376 0 0 1-2.027 5.922c-.718 2.027-1.451 4.049-2.188 6.07-.544 1.491-1.094 2.982-1.634 4.473-.172.472-.365.948-.488 1.436-.07.28-.102.563-.076.851a1.808 1.808 0 0 0 .552 1.087c.17.179.354.343.541.505.455.392.888.809 1.36 1.18l.006.004c.021.014.04.031.062.046.046.036.095.072.144.107.115.087.232.17.348.257.28.205.565.407.85.607A239.385 239.385 0 0 0 9.4 69.11a709.198 709.198 0 0 0 6.056 4.005l.31-.488 2.657-4.193c.47-.739.937-1.478 1.406-2.217-.234-.17-.467-.343-.703-.514l-4.964-3.628-3.128-2.287c-.177-.129-.338-.364-.245-.594.18-.447.361-.89.544-1.337l2.35-5.785 1.471-3.624c.096-.238.302-.409.56-.383a.46.46 0 0 1 .092.015c.255.069.478.383.372.648-.18.447-.361.89-.544 1.337-.357.88-.713 1.76-1.072 2.639l3.443-4.732 2.788-3.83c.177-.242.353-.489.531-.729.225-.301.552-.507.903-.556a.395.395 0 0 1-.091-.078L20.8 41.166l-1.623-1.96c-.132-.16-.302-.327-.359-.529-.146-.507-.168-1.223.21-1.636.168-.183.415-.32.618-.461l1.088-.758a797.4 797.4 0 0 1 1.637-1.142c.164-.113.383-.088.546.013-1.062-2-2.29-3.908-3.776-5.625l-.004.007Zm-5.183 15.37c-.357-1.31-.964-2.535-1.72-3.664a12.46 12.46 0 0 0-1.109-1.43 8.293 8.293 0 0 0-1.011-.962c-.23-.173-.35-.451-.191-.72.132-.226.497-.36.726-.19.98.737 1.772 1.693 2.453 2.7.827 1.217 1.49 2.566 1.876 3.986.178.657-.845.933-1.024.28Z" fill="#fff"/><path d="M51.671 49.285c-.82.337-1.641.585-2.525.316-.601-.184-1.132-.527-1.627-.904a15.427 15.427 0 0 1-1.703-1.556 67.336 67.336 0 0 0-1.82 6.136c-.162.66-1.186.38-1.024-.28a65.802 65.802 0 0 1 1.588-5.45l-.017-.037a.569.569 0 0 1-.367.155c-.312 0-.497-.244-.531-.526-.021-.181-.02-.156-.04-.303l-.06-.392c-.044-.282-.093-.564-.142-.847a61.2 61.2 0 0 0-.363-1.859c-.415-1.973-.846-3.974-1.483-5.892-.04-.122-.085-.242-.13-.364-.004-.009-.004-.013-.006-.02 0-.004-.002-.004-.004-.008-.03-.054-.058-.111-.091-.164-.251-.406-.655-.767-1.054-1.061a10.12 10.12 0 0 0-1.873-1.091.398.398 0 0 1-.16-.129.544.544 0 0 1-.195-.115.478.478 0 0 1-.136-.457 15.185 15.185 0 0 0-.924-.264c.5.449.994.9 1.48 1.36.234.222.19.504.024.691a.55.55 0 0 1-.149.422 7.68 7.68 0 0 1-.786.697c.04.019.081.035.12.052.545.249 1.019.565 1.174 1.182.036.145.044.265.034.406-.11 1.405-.223 2.811-.334 4.216h3.48c.286 0 .53.242.53.526v1.872a.48.48 0 0 1-.144.358c-.002.005-.006.007-.01.01-.007.007-.013.014-.02.018a.494.494 0 0 1-.359.14h-3.71c-.128 1.62-.255 3.24-.385 4.859-.023.284-.225.526-.53.526-.273 0-.555-.242-.532-.526l.16-2.022.223-2.836h-.759a.537.537 0 0 1-.53-.527v-1.872c0-.284.244-.526.53-.526h.99l.157-1.98c.06-.751.143-1.505.179-2.26.021-.456-.565-.606-.91-.76a59.067 59.067 0 0 0-1.184-.513c-.136-.057-.272-.116-.41-.173-.03-.012-.083-.033-.105-.044-.265-.11-.454-.343-.371-.649.07-.248.388-.478.654-.368.31.128.62.259.93.392.147-.095.291-.194.431-.297.207-.162.404-.335.59-.518a72.283 72.283 0 0 0-.84-.771c-.9-.809-1.814-1.603-2.738-2.386a72.066 72.066 0 0 0-1.319-1.093 37.741 37.741 0 0 0-.565-.448l-.057-.045-.009-.006c-.036-.027-.072-.055-.11-.082a13.83 13.83 0 0 0-.217-.16c-.233-.166-.346-.455-.191-.72a.51.51 0 0 1 .176-.173 1.79 1.79 0 0 0-.204-.145c-.11 1.099-.212 2.198-.274 3.302-.038.676-1.1.678-1.062 0 .083-1.487.238-2.965.39-4.446a6.258 6.258 0 0 1-2.106.98c-1.525.374-3.137.136-4.524-.575-1.1-.565-2.028-1.434-2.789-2.41-.09.618-.182 1.235-.276 1.852-.023.15-.13.256-.261.32.55.68 1.073 1.385 1.557 2.112a38.029 38.029 0 0 1 2.364 4.123.426.426 0 0 1 .21.072c.255.178.51.36.765.539 1.637 1.154 3.277 2.308 4.915 3.464l1.503-2.925c.223-.434.754-.282.924.06l.015-.027c-.123-.43-.255-.855-.406-1.276a14.85 14.85 0 0 0-.254-.665c-.007-.015-.011-.023-.013-.032l-.015-.031-.061-.14c-.04-.088-.083-.176-.126-.265a6.698 6.698 0 0 0-.414-.722c-.021-.032-.168-.225-.076-.112-.177-.225-.223-.522 0-.745.184-.183.573-.225.751 0 .604.766.977 1.678 1.294 2.592.752 2.173 1.17 4.467 1.527 6.733.344 2.185.607 4.386.777 6.593a.442.442 0 0 1-.061.248c.078.815.146 1.62.206 2.399l.335.24c.279.2.574.394.574.785 0 .255-.138.43-.278.62l1.816 1.299c.832.596 1.675 1.179 2.497 1.787.546.405.725 1.123.334 1.702-.053.078-.113.154-.168.232l-.845 1.16c-1.073 1.472-2.143 2.944-3.216 4.418-1.448 1.99-2.897 3.982-4.348 5.972l-.157.215c.36.031.729.084 1.037.28.367.236.66.638.67 1.082.022.93-.955 1.398-1.756 1.485a3.532 3.532 0 0 1-.363.017c.187.14.374.282.557.43.37.296.768.658.777 1.166a1.704 1.704 0 0 1-.682 1.364c-.36.268-.8.301-1.215.17a1.7 1.7 0 0 1-.278.902c-.246.37-.663.63-1.107.704.066.379-.027.777-.271 1.12-.357.501-.854.663-1.377.64.015.23-.036.465-.155.697a1.431 1.431 0 0 1-1.117.762c-.448.047-.881-.13-1.272-.328-.264-.135-.519-.282-.79-.398l-.085.118c-.283.39-.565.777-.85 1.166l-.17.234c-.404.543-1.115.75-1.712.367l-.64-.457c-1.452-1.04-2.905-2.081-4.36-3.12l-6.12-4.377-.831-.594-.022 1.706c.304-.074.674.088.667.49v.049c.028 1.147-.032 2.306-.046 3.453-.037 2.58-.077 5.158-.122 7.737-.057 3.403-.119 6.806-.189 10.209-.074 3.649-.157 7.299-.252 10.946-.083 3.144-.177 6.29-.295 9.432 1.673 0 3.347-.011 5.02-.03a1064.842 1064.842 0 0 0 14.728-.276l.115-1.505.675-8.828.427-5.584c.021-.285.225-.527.531-.527.272 0 .552.242.531.527-.05.674-.104 1.347-.155 2.021l-.675 8.828-.419 5.479.914.095c-.005-.265.167-.529.512-.518l1.4.044 6.125.192 3.264.101c-.015-.497-.006-.998-.01-1.491-.015-1.377-.026-2.755-.037-4.132-.014-1.865-.027-3.731-.038-5.595-.015-2.101-.027-4.203-.04-6.305a5964.83 5964.83 0 0 0-.087-11.773 625.757 625.757 0 0 0-.047-3.989 54.995 54.995 0 0 0-.187-3.742c-.316-3.796-.896-7.561-1.42-11.333-.224-1.607-.442-3.218-.585-4.835-.112-1.28-.189-2.573-.091-3.858.021-.284.225-.526.53-.526.188 0 .375.116.47.278.283.095.519.255.752.41.051-.225.304-.4.523-.4.144 0 .26.055.348.14a.64.64 0 0 1 .183.387c.027.22.089.501.157.739a3.922 3.922 0 0 0 .669 1.377c.047.065-.009-.004.06.076.065.076.131.152.201.225.074.078.153.152.234.221.042.038.087.074.131.11l.011.008c.013.009.023.02.036.028a4.5 4.5 0 0 0 .508.313c.055.03.112.057.17.083l.066.029a4.394 4.394 0 0 0 .837.238c.019.004.084.013.112.017l.093.01c.1.009.202.015.302.02.202.006.404-.007.603-.026h.028c.008 0 .019-.004.038-.006.047-.009.091-.015.138-.023a4.832 4.832 0 0 0 .841-.242c.021-.011.043-.02.064-.03a3.362 3.362 0 0 0 .386-.202c.085-.05.17-.103.251-.16l.085-.061.08-.063a3.85 3.85 0 0 0 .413-.398c.036-.04.07-.083.104-.123l.044-.059a3.426 3.426 0 0 0 .366-.633c.006-.017.025-.06.03-.076.227-.61.348-1.27.482-1.906.187-.887.356-1.775.52-2.666.359-1.946.69-3.898 1.011-5.85.113-.682.221-1.367.331-2.049l.026-.16c-.353.108-.697.238-1.039.38l.002-.011ZM32.673 88.872c-.684 0-.684-1.053 0-1.053.683 0 .683 1.053 0 1.053Zm0-9.234c-.684 0-.684-1.053 0-1.053.683 0 .683 1.053 0 1.053Z" fill="#fff"/><path d="M34.987 20.559c-.012.03-.012.031 0 0Z" fill="#D0E0F8"/><path d="M27.667 44.69c-.293.08-.554-.1-.654-.368a187.634 187.634 0 0 0-1.391-3.63c-.741-1.862-1.54-3.728-2.464-5.524a.588.588 0 0 1-.26.423c-.188.133-.377.264-.566.396l-2.094 1.462c-.143.099-.287.195-.427.297v.01s.01-.004-.005.004l-.017.08c0 .01-.004.036-.004.11 0 .054 0 .111.006.166 0 .03.005.061.009.09l.02.112c0 .009.003.017.006.026.093.113.189.227.282.343l2.772 3.35c.182.221.219.526 0 .745a.502.502 0 0 1-.179.112c.092.028.183.063.27.116.079.046.15.103.223.156a3622.01 3622.01 0 0 0 3.944 2.82c.075-.108.151-.215.24-.297a.737.737 0 0 1 .572-.186 15.115 15.115 0 0 0-.228-.836.625.625 0 0 1-.057.023h.002Z" fill="#fff"/><path d="M30.205 14.783c-.078.004-.036.013 0 .004.004 0 .007-.002.01-.004h-.01ZM30.214 14.781h.002l.01-.004c-.003.002-.008.004-.012.004ZM30.566 14.794s-.03-.009-.048-.01c.016.003.031.008.048.01ZM27.915 17.953v.017c-.015.074-.004.023 0-.017ZM29.84 14.873h.005l.01-.008-.015.008ZM19.757 37.788a.172.172 0 0 1 .042-.023l.013-.015-.055.038ZM19.82 37.73c0-.01-.004 0-.008.018 0 0 .008-.012.008-.018ZM30.515 14.783l-.017-.004c.006 0 .01.002.013.004h.004ZM29.799 14.896c.012-.006.027-.013.038-.021a.122.122 0 0 0-.038.021ZM44.542 47.51l.017.039c.009-.026.015-.051.024-.074a.624.624 0 0 1-.041.036Z" fill="#D0E0F8"/><path d="M52.467 47.795c-.294-.08-.425-.368-.372-.648l.677-3.538c.037-.188.047-.381.194-.527.07-.07.174-.132.252-.191l1.065-.802c1.282-.967 2.563-1.936 3.844-2.907l1.02-.775a196.51 196.51 0 0 0 1.607-1.236c.164-.126.555-.35.6-.55a.467.467 0 0 0-.035-.029c-.01-.006-.07-.048-.089-.059a.318.318 0 0 0-.032-.012.846.846 0 0 1-.095-.028c-.183-.02-.33.017-.51.082-.559.203-1.037.636-1.534.952-.713.457-1.467.836-2.206 1.249a.5.5 0 0 1-.574.238 3.227 3.227 0 0 0-.711-.11 8.069 8.069 0 0 0-.844-.004c-.624.03-1.242.125-1.852.266a9.32 9.32 0 0 0-1.767.577c-.25.113-.495.242-.728.39-.236.149-.37.252-.578.473-.467.497-1.217-.25-.752-.745.894-.95 2.298-1.422 3.54-1.71 1.156-.27 2.433-.436 3.62-.224.663-.372 1.344-.713 1.994-1.11.858-.522 1.714-1.364 2.778-1.38.21-.005.415.037.602.113a.753.753 0 0 1 .127-.145c.123-.106.261-.188.39-.282l.05-.036a2.569 2.569 0 0 0 .312-.29l.05-.062.007-.01c.034-.049.057-.11.091-.159l.015-.042V34.5a.837.837 0 0 1-.012-.04c0-.002-.005-.006-.005-.008-.023-.015-.032-.04-.02-.032l-.005-.004-.07-.07c-.01-.006-.02-.012-.03-.016l-.013-.007-.025-.01h-.02c-.004 0-.016 0-.029.002a.075.075 0 0 0-.021.004l-.064.019a.084.084 0 0 1-.02.01l-.016.013a.446.446 0 0 0-.055.03.58.58 0 0 1-.12.06l-.343.184-4.053 2.129c-.603.318-1.14-.592-.535-.91.195-.103.39-.206.586-.307 1.291-.678 2.57-1.398 3.883-2.043.1-.097.167-.185.233-.29.05-.08.085-.14.085-.194a.502.502 0 0 0-.193-.084c-.276-.047-.497.124-.74.259-.241.134-.49.282-.753.379l-.043.03c-1.42.785-2.85 1.56-4.27 2.345-.6.33-1.135-.58-.536-.91 1.27-.701 2.542-1.394 3.812-2.093a.386.386 0 0 0-.146-.019c-.336-.008-.673.137-.969.286-.416.211-.809.474-1.21.708-.574.335-1.151.668-1.725 1.002-.641.373-1.283.746-1.92 1.125-.59.352-1.204.693-1.752 1.11-.23.175-.595.033-.727-.19-.157-.267-.036-.547.191-.72.366-.278.757-.526 1.156-.764l.006-.02c.204-.463.387-.943.49-1.44.04-.18.06-.362.056-.547a.65.65 0 0 0-.03-.213c0-.008-.015-.044-.02-.065-.005 0-.03-.047-.026-.047a.69.69 0 0 0-.317-.198c-.163-.027-.28.11-.378.23-.206.246-.234.53-.32.836-.181.62-.43 1.289-.793 1.826-.304.446-.707.84-1.113 1.194-.527.46-1.043.89-1.397 1.503a3.95 3.95 0 0 0-.533 2.011c0 .236.017.47.055.704.02.137.042.252.015.394-.02.09-.047.18-.068.271l-.313 1.242-.524 2.083c-.117.464-.657.461-.91.19l-.108.339a.524.524 0 0 1 .21.137c.676.728 1.413 1.497 2.201 2.065.24.173.493.335.758.466.026.012.143.063.151.07.04.014.079.03.12.043.095.034.194.062.294.085.015.004.068.012.102.019l.087.01a2.082 2.082 0 0 0 .37-.008l.072-.01c.085-.015.168-.036.25-.06.785-.215 1.498-.608 2.29-.802v-.019a.557.557 0 0 1-.335.023h-.004Z" fill="#fff"/><path d="M38.537 31.712c-.225-.751-.678-1.417-1.102-2.07-.461-.705-.863-1.41-1.194-2.186-.658-1.54-1.225-3.19-1.42-4.868a2.155 2.155 0 0 1-.82.415c-.398 1.562-.963 3.047-1.978 4.338a7.628 7.628 0 0 1-.44.51c0 .018.004.037.002.056-.068.7-.14 1.398-.21 2.098.072.044.14.092.204.145.166-.103.389-.133.55-.017.435.312.854.646 1.268.981a96.317 96.317 0 0 1 3.587 3.056c.308.08.616.164.924.263a.7.7 0 0 1 .136-.286c.567-.725.752-1.571.493-2.437v.002ZM19.294 16.474c.17.116.272.303.26.497.354-.455.872-.739 1.242-1.129-.529.085-1.06.14-1.595.154-.684.02-.682-1.034 0-1.053a10.93 10.93 0 0 0 2.321-.328c3.023-.746 5.899-2.451 7.938-4.79.189-.218.558-.19.752 0a.494.494 0 0 1 .144.292c.435.172.803.512 1.07.918a.528.528 0 0 1 .158-.03c.308 0 .5.245.53.527l.005.042c0 .006.002.017.006.032l.026.136a4.727 4.727 0 0 0 .266.834c.146.35.364.746.577 1.091.431.697.924 1.34 1.516 1.91.274.265.16.615-.08.788.112.47.23.947.577 1.295.57-.053 1.024.326 1.24.832.084-.27.169-.544.228-.83a.485.485 0 0 1-.416.219c-.26 0-.57-.244-.531-.526.13-.967.195-1.94.19-2.913-.003-1.468-.148-2.95-.564-4.363-.16-.54-.334-1.013-.616-1.493a4.956 4.956 0 0 0-.204-.314c-.01-.017-.023-.031-.036-.048V8.22c-.038-.043-.074-.087-.113-.127-.065-.071-.138-.137-.21-.202-.01-.008-.017-.017-.023-.021-.005 0-.01-.004-.021-.013-.034-.02-.068-.044-.104-.065a.492.492 0 0 1-.213-.634c-.049-.12-.1-.24-.174-.33a.505.505 0 0 1-.18.179c-.234.134-.602.067-.727-.19-.285-.581-.746-.998-1.308-1.34-.655-.395-1.353-.648-2.101-.831-1.249-.305-2.655-.409-3.855-.101-1.635.417-3.16 1.223-4.31 2.464-1.055 1.143-1.624 2.594-2.032 4.07a19.835 19.835 0 0 0-.73 4.742c-.011.365-.324.531-.606.504v.297c.482-.396 1.115-.556 1.699-.156l.004.008Z" fill="#FFA6B2"/><path d="M35.305 19.01c-.007-.021-.058-.16-.04-.123a.63.63 0 0 0-.126-.178l-.009-.005c-.278.057-.567-.086-.645-.368-.075-.265.091-.586.371-.649.051-.01.102-.019.151-.023-.348-.35-.465-.825-.577-1.295a.503.503 0 0 1-.672-.044 10.982 10.982 0 0 1-1.718-2.182c-.486-.798-.892-1.672-.988-2.607-.023-.227.162-.425.374-.497-.267-.406-.635-.745-1.07-.918a.58.58 0 0 1-.145.45 14.638 14.638 0 0 1-2.034 1.913c-2.114 1.642-4.692 2.929-7.381 3.36-.368.388-.886.672-1.243 1.13a.495.495 0 0 1-.236.391l-.025.05c0 .055-.015.038-.042-.012a.496.496 0 0 1-.493-.019c-.191-.13-.274-.126-.45.008-.172.133-.321.354-.391.533-.168.43-.185.914-.113 1.346.157.962.684 1.861 1.597 2.242.009.005.013.009.022.013.178.027.34.14.403.362.408 1.417.905 2.79 1.774 4 .79 1.103 1.81 2.08 3.069 2.63 1.232.538 2.65.6 3.919.14 1.24-.45 2.26-1.404 2.977-2.482.803-1.207 1.209-2.559 1.534-3.955.093-.409.518-.457.796-.28.003 0 .005-.002.009-.006.049-.03.102-.055.15-.085.026-.016.052-.035.077-.052.006-.009.087-.074.098-.084a2.706 2.706 0 0 0 .282-.31c.034-.046.066-.093.098-.139a4.488 4.488 0 0 0 .344-.621c.015-.03.028-.061.04-.09a5.648 5.648 0 0 0 .26-.792c.023-.097.042-.194.059-.293l.006-.036v-.017c0-.036.007-.072.009-.107.004-.06 0-.118 0-.177 0 .027-.013-.093-.02-.122h-.001Zm-8.944 1.994a.373.373 0 0 1 .11-.169.407.407 0 0 1 .17-.11.403.403 0 0 1 .204-.045c.021 0 .042.002.064.004l.444.031c.095 0 .184.026.267.072l.108.082c.066.065.11.143.136.232l.02.139a.39.39 0 0 1-.047.202.372.372 0 0 1-.11.168.405.405 0 0 1-.17.11.403.403 0 0 1-.204.046l-.064-.004-.444-.032a.542.542 0 0 1-.268-.071l-.108-.082a.526.526 0 0 1-.136-.232l-.02-.139a.389.389 0 0 1 .048-.202Zm-2.296-3.473c-.684 0-.684-1.052 0-1.052.683 0 .683 1.052 0 1.052Zm4.957 7.112c-1.294.718-3.137.575-4.244-.415-.214-.192-.195-.552 0-.746.21-.208.538-.19.752 0l.096.082a3.486 3.486 0 0 0 .236.154 2.638 2.638 0 0 0 .248.12 2.996 2.996 0 0 0 .565.152l.06.01c.03.005.059.007.089.011a3.951 3.951 0 0 0 .69 0l.093-.008h.017c.007 0 .011-.003.024-.005.066-.012.131-.023.197-.038.132-.03.26-.065.387-.11.027-.01.057-.022.087-.03h.004c.055-.03.108-.055.162-.085a.541.541 0 0 1 .726.19.532.532 0 0 1-.191.72l.002-.002Zm1.327-6.724c-.683 0-.683-1.053 0-1.053.684 0 .684 1.053 0 1.053Z" fill="#fff"/><path d="M19.293 17.414c.006-.02.017-.034.025-.05a.722.722 0 0 1-.068.04c.028.05.043.067.043.012v-.002Z" fill="#D0E0F8"/><path d="m32.703 36.946-1.767 3.44c-.121.237-.502.347-.727.189l-.764-.54c-1.398-.985-2.796-1.968-4.193-2.954 1.028 2.28 1.914 4.63 2.789 6.964.093.246-.083.529-.315.625.083.276.16.554.228.836a.8.8 0 0 1 .346.118c.522.329 1.013.725 1.516 1.085l5.557 3.973.482.346c-.06-.781-.13-1.584-.206-2.399a.563.563 0 0 1-.47.278c-.301 0-.51-.242-.53-.526a77.656 77.656 0 0 0-.334-3.361c-.274-2.295-.627-4.587-1.143-6.842a32.766 32.766 0 0 0-.444-1.73l-.014.027c.067.134.08.299-.007.471h-.004ZM18.878 22.429s-.011-.002-.015-.005c-.648-.271-1.154-.764-1.513-1.356-.503.992-1.308 1.862-2.005 2.694-.868 1.036-1.877 2.354-1.716 3.786.08.712.48 1.346.616 2.047.145.741-.095 1.415-.512 2.03-.558.827-1.327 1.42-2.054 2.093-.397.368-.786.747-1.13 1.166a3.456 3.456 0 0 0-.44.679l-.004.006c.835-.67 1.78-1.209 2.71-1.735 1.296-.731 2.64-1.36 4.013-1.933v-.009c-.058-.293.117-.53.246-.779l.363-.7c.251-.481.5-.961.75-1.444.155-.299.459-.318.688-.187-.012-.017-.027-.034-.04-.049-.454-.503.295-1.25.752-.745.055.061.106.124.161.185l.015-.092.368-2.477c0-.012.006-.02.01-.033-.556-.986-.939-2.058-1.261-3.14l-.002-.002ZM22.498 43.957c-.113-.07-.14-.055-.232-.03-.006 0-.027.021-.04.036l-.015.019c-.59.82-1.187 1.632-1.782 2.447l-3.615 4.968-3.902 5.36-.973 2.397.771.563a84830.47 84830.47 0 0 0 8.092 5.915.67.67 0 0 1 .217.265c.655.377 1.32.737 1.997 1.07.255.126.512.246.773.358l.023.01s.005 0 .013.007c.024.008.045.019.068.027.058.023.117.046.177.067.093.034.186.068.282.095.087.025.178.04.265.066h.009c.038-.005.078-.003.117-.007.408-.04.809-.198 1.19-.343.341-.13.67-.26 1.038-.297.346-.036.7 0 1.04.076.387.086.77.244 1.105.453.395.246.705.574 1.039.89.352.333.72.621 1.134.815.875-1.202 1.75-2.403 2.623-3.605l3.861-5.304 2.245-3.085c.062-.085.126-.169.185-.253a.193.193 0 0 0 .023-.034c.073-.118.047-.139.032-.23 0-.006-.002-.01-.004-.014-.255-.202-.53-.381-.794-.569l-3.594-2.57-.312.429c-.227.31-.525.463-.873.377a.407.407 0 0 1-.204-.074.558.558 0 0 1-.136-.097l-4.656-3.331c-.851-.609-1.703-1.22-2.555-1.828l-.68-.486c-.034-.026-.07-.049-.104-.074-.348-.257-.456-.685-.214-1.055.12-.188.253-.369.386-.55L23.957 45l-1.277-.912c-.06-.042-.119-.092-.182-.13Z" fill="#FFA6B2"/><path d="M40.25 56.66c-.016-.035-.051-.043 0 0Z" fill="#D0E0F8"/><path d="m28.11 46.453-.038.052c.081-.057.132-.19.038-.053ZM35.007 53.343v-.011h-.017l.017.011ZM26.953 47.582l.051.038c-.06-.073-.185-.128-.05-.038ZM35.745 52.244c.06.074.185.129.051.038l-.05-.038ZM27.578 47.184l-.401.552v.004c.233.17.471.339.71.51 1.454 1.042 2.911 2.082 4.366 3.124l2.542 1.82.376-.516c.134-.183.268-.366.402-.552v-.004c-.234-.17-.472-.339-.71-.51-1.47-1.05-2.94-2.101-4.407-3.154l-1.93-1.381-.572-.409-.376.516Z" fill="#fff"/><path d="M34.31 45.02c.135 1.117.247 2.238.334 3.36.021.284.23.526.531.526a.57.57 0 0 0 .47-.278.433.433 0 0 0 .061-.248 83.761 83.761 0 0 0-.777-6.593c-.357-2.266-.775-4.56-1.527-6.733-.317-.913-.69-1.825-1.294-2.592-.176-.225-.565-.183-.752 0-.223.221-.176.52 0 .746-.091-.116.055.078.077.111a6.046 6.046 0 0 1 .414.722c.042.089.085.175.125.266.021.046.04.093.062.139.006.015.01.025.015.031l.013.032c.09.219.176.442.254.666.151.42.283.846.406 1.276.164.572.31 1.15.444 1.73.516 2.254.869 4.547 1.143 6.842l.002-.004Z" fill="#333"/><path d="M42.027 43.2h-3.48c.11-1.405.224-2.811.334-4.216.01-.14.002-.26-.034-.406-.155-.617-.629-.933-1.175-1.181-.04-.02-.08-.036-.118-.053a7.72 7.72 0 0 0 .785-.697.553.553 0 0 0 .149-.421c.164-.188.21-.47-.023-.691-.487-.46-.982-.912-1.48-1.36-.162-.042-.326-.082-.487-.122.161.04.325.08.486.122a96.398 96.398 0 0 0-3.587-3.056c-.414-.337-.835-.67-1.268-.981-.162-.116-.385-.089-.55.017.403.334.643.802 1.096.951-.453-.149-.693-.617-1.096-.951a.528.528 0 0 0-.177.172c-.157.266-.042.554.192.72.072.053.146.106.216.16l.11.083.01.006a37.116 37.116 0 0 1 .622.493c.443.358.883.724 1.319 1.093.923.78 1.837 1.577 2.737 2.386.283.252.563.511.841.77a7.605 7.605 0 0 1-.59.518c-.14.106-.285.203-.431.297a87.74 87.74 0 0 0-.93-.392c-.266-.109-.585.119-.655.369-.085.303.106.537.372.649l.104.044.41.172c.397.169.792.34 1.185.514.344.154.933.304.91.76-.037.754-.12 1.508-.18 2.26l-.156 1.98h-.99a.537.537 0 0 0-.531.526v1.872c0 .284.244.526.53.526h.76l-.224 2.837-.16 2.022c-.023.284.26.526.532.526.306 0 .507-.242.53-.526l.385-4.858h3.71a.494.494 0 0 0 .36-.142c.006-.006.013-.01.019-.017.002-.004.006-.006.01-.01a.48.48 0 0 0 .145-.358v-1.872a.537.537 0 0 0-.531-.526l-.006-.009Zm-.531 1.872h-4.47v-.819h4.47v.82ZM33.45 6.293c-.635-1.297-2.064-2.042-3.388-2.47-1.442-.463-3.026-.627-4.528-.398-1.716.263-3.426 1.12-4.72 2.258-1.335 1.172-2.14 2.7-2.682 4.363a20.59 20.59 0 0 0-.996 5.782c-.008.312.215.48.457.503.284.028.596-.138.605-.503.042-1.6.306-3.2.73-4.742.408-1.476.978-2.927 2.033-4.07 1.147-1.243 2.674-2.047 4.31-2.464 1.2-.306 2.606-.205 3.855.1.747.184 1.446.437 2.1.833.563.34 1.024.756 1.309 1.339.125.255.493.324.726.19a.505.505 0 0 0 .18-.18.568.568 0 0 0 .011-.54h-.002ZM36.634 12.107c-.172-1.359-.455-2.77-1.139-3.976-.276-.489-.641-.95-1.132-1.24-.327-.194-.639.002-.747.275.11.274.212.563.546.563-.334 0-.434-.287-.546-.563a.492.492 0 0 0 .212.634c.034.021.068.044.104.065l.021.013c.007.004.013.013.024.021.072.065.144.13.21.202.038.04.074.085.11.127v.004a.376.376 0 0 1 .039.048c.072.103.14.207.204.314.282.478.459.954.616 1.493.416 1.413.56 2.896.565 4.363.004.975-.064 1.948-.192 2.913-.038.282.272.526.531.526a.48.48 0 0 0 .417-.219.746.746 0 0 0 .114-.307c.232-1.738.266-3.509.045-5.25l-.002-.006ZM34.51 15.58a9.706 9.706 0 0 1-1.516-1.91 8.438 8.438 0 0 1-.578-1.091 4.694 4.694 0 0 1-.265-.834 1.493 1.493 0 0 1-.032-.169c0-.006 0-.017-.004-.042-.03-.282-.223-.526-.531-.526a.505.505 0 0 0-.157.03c-.21.07-.398.269-.374.496.095.935.503 1.81.987 2.607.478.788 1.054 1.54 1.719 2.182a.503.503 0 0 0 .67.044c-.07-.299-.14-.594-.269-.849.13.255.2.55.27.85.24-.174.355-.523.08-.788Z" fill="#333"/><path d="M29.457 9.826c-2.039 2.338-4.914 4.043-7.937 4.791-.762.187-1.535.307-2.321.328-.682.02-.684 1.072 0 1.053.533-.014 1.066-.07 1.595-.153 2.689-.432 5.267-1.719 7.38-3.361a14.514 14.514 0 0 0 2.035-1.912.575.575 0 0 0 .145-.45.493.493 0 0 0-.145-.294c-.19-.19-.563-.217-.752 0v-.002ZM30.517 14.783h-.004c.052.015.063.015.052.01l-.048-.01ZM30.203 14.785l.012-.004h-.002l-.01.004ZM29.839 14.875a.342.342 0 0 1-.038.021c-.01.008-.002.006.044-.023h-.006v.002ZM30.35 16.865c-.684 0-.684 1.053 0 1.053s.684-1.053 0-1.053ZM24.062 17.53c.684 0 .684-1.053 0-1.053s-.684 1.052 0 1.052ZM27.622 20.787a.52.52 0 0 0-.268-.071l-.444-.032c-.02 0-.042-.002-.063-.004a.398.398 0 0 0-.204.046.377.377 0 0 0-.17.11.402.402 0 0 0-.11.168.394.394 0 0 0-.047.202l.019.14c.025.088.07.166.136.231l.108.082a.52.52 0 0 0 .268.072l.444.031.063.005a.4.4 0 0 0 .204-.047.377.377 0 0 0 .17-.11.403.403 0 0 0 .11-.168.393.393 0 0 0 .047-.202l-.019-.139a.526.526 0 0 0-.136-.232l-.108-.082Z" fill="#333"/><path d="M37.03 44.252v.82h4.468v-.82H37.03Z" fill="#fff"/><path d="M13.103 40.18c-.684-1.007-1.476-1.963-2.454-2.7-.229-.172-.594-.035-.726.19-.16.27-.038.547.191.72a8.325 8.325 0 0 1 1.011.962c.406.449.773.929 1.109 1.43.756 1.129 1.364 2.355 1.72 3.664.179.653 1.202.377 1.024-.28-.386-1.42-1.05-2.769-1.875-3.986ZM29.022 24.644a.532.532 0 0 0 .192-.72.541.541 0 0 0-.727-.19c-.053.03-.108.055-.161.082h-.005c-.03.01-.057.026-.087.034-.125.044-.255.08-.386.11-.066.014-.132.025-.198.037-.01 0-.015.005-.023.005h-.017l-.094.008a3.844 3.844 0 0 1-.69 0c-.03-.002-.06-.006-.09-.01-.01 0-.037-.007-.059-.011a3.273 3.273 0 0 1-.45-.112c-.038-.012-.076-.027-.114-.04-.013-.004-.03-.012-.043-.017a2.342 2.342 0 0 1-.442-.256c-.032-.028-.066-.055-.095-.083-.213-.19-.542-.208-.752 0-.196.194-.215.554 0 .746 1.106.99 2.95 1.13 4.244.415l-.003.002Z" fill="#333"/><path d="M53.48 47.833a.49.49 0 0 0-.168-.012.518.518 0 0 0-.384-.06l-.125.032c-.793.194-1.506.588-2.29.803a3.341 3.341 0 0 1-.25.059c-.01 0-.045.006-.073.01a2.496 2.496 0 0 1-.37.008c-.01 0-.057-.006-.087-.01l-.101-.019c-.1-.021-.198-.05-.296-.084-.04-.015-.078-.03-.119-.044-.006-.005-.125-.057-.15-.07a5.253 5.253 0 0 1-.759-.465c-.788-.569-1.525-1.337-2.2-2.066a.472.472 0 0 0-.21-.137.432.432 0 0 0-.268-.008c-.266-.036-.493.132-.582.379-.117.324-.232.65-.342.977-.28-2.262-.792-4.5-1.338-6.711a42.282 42.282 0 0 0-.737-2.7c-.087-.27-.174-.548-.302-.802-.231-.461-.62-.86-1.01-1.192a9.963 9.963 0 0 0-2.14-1.375c.38-.634.61-1.34.54-2.102-.08-.867-.453-1.657-.899-2.396-.42-.697-.917-1.354-1.28-2.085-.461-.925-.822-1.908-1.122-2.893-.314-1.03-.565-2.094-.6-3.172a.537.537 0 0 0-.075-.257l.053-.099c.374-.737.752-1.724.552-2.56a1.804 1.804 0 0 0-.093-.28c-.217-.506-.672-.885-1.24-.832-.05.004-.1.012-.151.023-.28.063-.444.383-.372.649.078.282.367.427.646.368l.008.004c.04.028.102.127.125.18-.017-.036.034.1.04.122.01.029.018.149.02.122 0 .059.002.117 0 .176l-.009.108v.017c0 .008-.004.019-.006.035a5.13 5.13 0 0 1-.319 1.085c-.012.03-.027.061-.04.09a5.463 5.463 0 0 1-.344.621 6.095 6.095 0 0 1-.098.14 2.705 2.705 0 0 1-.282.31c-.011.01-.092.075-.098.084l-.076.052c-.05.032-.102.055-.151.084-.005.002-.005.005-.009.007-.276-.177-.7-.129-.796.28-.323 1.396-.73 2.748-1.534 3.954-.718 1.079-1.737 2.035-2.978 2.483a5.33 5.33 0 0 1-3.918-.14c-1.262-.55-2.28-1.53-3.07-2.631-.868-1.21-1.365-2.584-1.773-3.999a.483.483 0 0 0-.403-.362c-.009-.004-.013-.009-.022-.013-.911-.38-1.44-1.28-1.597-2.242-.07-.432-.055-.916.113-1.346.07-.177.216-.4.39-.533.177-.135.26-.14.45-.008a.5.5 0 0 0 .493.019c-.08-.143-.28-.565-.594-.409.314-.156.512.265.594.409.024-.01.045-.025.068-.04.064-.146.145-.274.236-.392a.566.566 0 0 0-.259-.497c-.586-.4-1.22-.24-1.7.156a2.259 2.259 0 0 0-.428.467c-.389.565-.5 1.32-.446 1.988.01.129.027.257.049.386-.22 1.345-1.217 2.409-2.07 3.417-.974 1.154-1.945 2.426-2.123 3.968-.091.787.138 1.499.406 2.228.116.318.28.692.255 1.04-.022.282-.164.552-.31.792-.5.819-1.281 1.39-1.978 2.034-.442.408-.875.834-1.249 1.305-.35.445-.663.919-.716 1.493-.021.226.16.426.37.498-.074.075-.151.149-.223.229a6.905 6.905 0 0 0-1.217 1.861c-.196.455-.306.92-.425 1.399a41.36 41.36 0 0 1-.588 2.061c-.589 1.912-1.24 3.806-1.9 5.694a535.2 535.2 0 0 1-2.236 6.261c-.62 1.706-1.246 3.41-1.867 5.113-.497 1.36-1.31 2.942-.656 4.37.42.915 1.344 1.503 2.06 2.175.336.313.718.583 1.088.852.282.207.567.411.854.613l-.104.15c-.391.577-.209 1.297.335 1.697.064.046.128.093.193.137l1.317.941 4.303 3.079.83.594 6.122 4.378 4.36 3.119.64.456c.597.384 1.308.175 1.712-.366l.17-.234c.282-.39.565-.777.85-1.166l.084-.118c.272.116.525.263.79.398.391.198.825.375 1.273.328a1.422 1.422 0 0 0 1.272-1.46c.523.024 1.02-.136 1.376-.64.245-.343.338-.74.272-1.12.444-.073.86-.332 1.107-.703.174-.261.276-.583.278-.901.416.13.854.097 1.215-.17a1.7 1.7 0 0 0 .682-1.365c-.009-.508-.408-.868-.778-1.167-.182-.147-.37-.288-.556-.43.119 0 .24-.004.363-.016.8-.085 1.778-.554 1.757-1.485-.011-.444-.304-.844-.672-1.082-.305-.196-.675-.25-1.036-.28l.157-.215c1.449-1.99 2.897-3.982 4.348-5.972l3.216-4.418.845-1.16c.055-.078.115-.152.168-.232.39-.58.214-1.297-.334-1.702-.824-.608-1.665-1.192-2.498-1.787l-1.816-1.3c.14-.191.279-.364.279-.619 0-.392-.295-.585-.574-.785l-.335-.24-.483-.346-5.556-3.973c-.501-.36-.994-.756-1.516-1.085a.818.818 0 0 0-.346-.118.722.722 0 0 0-.572.185 1.738 1.738 0 0 0-.24.297 3502.643 3502.643 0 0 0-3.944-2.82c-.072-.052-.145-.109-.223-.155a1.3 1.3 0 0 0-.27-.116.499.499 0 0 0 .178-.111c.22-.217.183-.525 0-.746l-2.771-3.35c-.094-.114-.19-.228-.283-.343 0-.009-.004-.017-.006-.026a.931.931 0 0 1-.02-.111l-.008-.09a2.152 2.152 0 0 1-.002-.277l.017-.08c.015-.006.015-.008 0-.004v-.01s-.004.01-.01.014l-.043.023.055-.037c.005-.02.009-.03.009-.02a.049.049 0 0 1-.009.02c.14-.102.285-.198.427-.297l2.094-1.462.567-.396a.596.596 0 0 0 .26-.423c.924 1.796 1.722 3.662 2.463 5.523.478 1.205.937 2.418 1.392 3.63.1.266.359.45.654.37a.615.615 0 0 0 .057-.024c.232-.097.406-.377.314-.625-.875-2.331-1.76-4.681-2.788-6.964l4.192 2.954.765.54c.225.157.605.048.727-.19l1.767-3.439a.508.508 0 0 0 .006-.471c-.17-.342-.7-.493-.924-.062l-1.504 2.925-4.915-3.464-.764-.539a.406.406 0 0 0-.21-.071c-.706-1.42-1.48-2.801-2.364-4.123a28.113 28.113 0 0 0-1.557-2.113c.131-.06.24-.168.261-.32.091-.617.183-1.234.276-1.85.758.976 1.686 1.844 2.789 2.408 1.389.712 2.999.95 4.524.575.76-.187 1.47-.53 2.105-.979-.151 1.48-.306 2.959-.389 4.445-.038.678 1.024.676 1.062 0a74.73 74.73 0 0 1 .274-3.302c.07-.699.142-1.398.21-2.097 0-.019 0-.038-.002-.057.153-.164.302-.335.44-.51 1.015-1.29 1.58-2.775 1.977-4.337a2.14 2.14 0 0 0 .82-.415c.196 1.678.763 3.33 1.421 4.868.331.775.733 1.479 1.194 2.186.424.653.877 1.32 1.102 2.07.26.864.074 1.71-.493 2.437a.672.672 0 0 0-.136.286.482.482 0 0 0 .332.573c.04.055.093.1.159.128.658.29 1.296.664 1.873 1.091.402.295.803.657 1.054 1.061.034.055.061.11.091.165l.004.008c0 .006.003.009.007.019.044.12.089.242.13.364.634 1.917 1.068 3.92 1.482 5.892.13.62.253 1.239.363 1.86a38.915 38.915 0 0 1 .202 1.238c.021.147.017.122.04.303.034.282.219.527.531.527a.569.569 0 0 0 .368-.156c.012-.013.027-.023.04-.036a67.967 67.967 0 0 0-1.612 5.524c-.162.659.862.939 1.024.28a67.345 67.345 0 0 1 1.82-6.137 15.419 15.419 0 0 0 1.703 1.556c.493.38 1.024.72 1.627.904.886.27 1.706.021 2.526-.316.342-.141.686-.274 1.038-.379l-.025.16c-.108.684-.219 1.367-.332 2.049-.32 1.952-.651 3.904-1.01 5.85-.164.89-.334 1.78-.52 2.666-.135.636-.256 1.295-.483 1.906l-.03.075c-.019.045-.04.087-.061.131a4.187 4.187 0 0 1-.149.27c-.049.08-.102.157-.155.233l-.045.06a3.87 3.87 0 0 1-.597.583 3.866 3.866 0 0 1-.336.221c-.084.05-.171.099-.26.143-.04.02-.083.04-.126.059a4.496 4.496 0 0 1-.905.272l-.138.023a.28.28 0 0 0-.038.006h-.027c-.202.019-.402.03-.604.025a3.535 3.535 0 0 1-.395-.03l-.112-.016a4.41 4.41 0 0 1-.837-.238c-.02-.008-.051-.021-.066-.03-.057-.027-.115-.054-.17-.082a4.158 4.158 0 0 1-.544-.34l-.01-.01a4.63 4.63 0 0 1-.365-.33 4.16 4.16 0 0 1-.202-.225c-.068-.08-.013-.01-.06-.076a3.921 3.921 0 0 1-.67-1.377 6.007 6.007 0 0 1-.156-.74.652.652 0 0 0-.183-.387.486.486 0 0 0-.348-.139c-.219 0-.471.175-.523.4.207.137.41.27.64.346-.232-.076-.436-.209-.64-.346-.008.04-.014.082-.008.127.145 1.11.514 2.158 1.262 3.013a4.535 4.535 0 0 0 2.342 1.396c1.717.409 3.696-.126 4.826-1.512.525-.644.788-1.375.98-2.169.192-.802.352-1.61.509-2.42.395-2.046.748-4.101 1.09-6.157.208-1.253.418-2.508.611-3.763.002-.02.007-.04.01-.06.045-.28-.071-.567-.37-.65l-.003.015ZM35.13 18.702c-.034 0-.034 0 0 0ZM10.111 35.559c.021-.045.044-.089.068-.133.11-.202.252-.398.371-.545.345-.417.733-.798 1.13-1.167.725-.672 1.496-1.266 2.054-2.093.416-.615.654-1.289.512-2.03-.136-.7-.535-1.333-.616-2.047-.161-1.432.85-2.75 1.716-3.786.7-.834 1.504-1.702 2.005-2.694.36.592.865 1.085 1.513 1.357a.04.04 0 0 1 .014.004c.321 1.082.703 2.154 1.262 3.14-.002.01-.008.02-.01.033-.124.826-.247 1.651-.368 2.477l-.015.092c-.055-.06-.106-.124-.161-.185-.457-.505-1.204.24-.752.745.015.015.027.032.04.047.204-.213.204-.626.204-.832 0 .208 0 .62-.204.832l-.006.01.006-.008c-.23-.13-.533-.112-.688.187l-.75 1.445c-.12.234-.242.465-.363.699-.13.248-.304.486-.246.78v.008c-1.372.572-2.717 1.2-4.013 1.933-.93.526-1.877 1.063-2.71 1.735l.005-.007.002.003Zm-5.09 32.26c-.029-.023.018.003.039.028a.43.43 0 0 1-.038-.027Zm18.001 12.726c.034-.017.045-.053 0 0Zm.245-.34c-.068.096-.139.19-.206.285-.013.02-.026.038-.04.055a.04.04 0 0 1-.016.004c-.093.017-.112.046-.231-.032l-2.436-1.743-5.478-3.919-5.928-4.241L5.28 68c-.072-.053-.147-.104-.217-.156-.064-.087-.102-.114-.055-.217.013-.03.04-.06.06-.088.014-.022.03-.04.044-.062.79.548 1.587 1.087 2.381 1.624a698.144 698.144 0 0 0 7.708 5.113c.049.031.095.063.144.095.245.16.58.042.727-.19.235-.373.473-.745.71-1.118.02.013.042.023.06.038.156.099.304.204.453.314.038.03.077.056.117.086.013.01.066.05.08.063.098.076.194.152.29.23a48.166 48.166 0 0 1 2.586 2.28c.72.674 1.436 1.356 2.112 2.074.412.438.85.752 1.41.992l.155.063c-.259.356-.518.71-.775 1.066l-.004-.002Zm8.993-6.27v.019c-.015-.017-.007-.03 0-.02Zm.781-3.117c.026.076-.04.143-.119.204a1.09 1.09 0 0 1-.38.18c-.769.214-1.536-.085-2.277-.264l-.157-.128-1.294-1.055c-.22-.181-.535-.215-.752 0-.186.185-.223.562 0 .745l2.28 1.86c.53.433 1.102.825 1.62 1.276.077.065.147.135.219.206.053.055.03.074.076.112 0 .017-.004.033-.004.04 0-.004-.034.145-.044.168-.062.145-.132.247-.262.305a.736.736 0 0 1-.093.011c.085-.002-.072-.019-.121-.034-.194-.06-.232-.084-.436-.18a19.512 19.512 0 0 1-1.21-.644c-.508-.298-1.103.42-.644.826.221.196.44.398.652.605.098.095.253.202.274.335.015.099-.049.278-.104.372a.532.532 0 0 1-.285.228.788.788 0 0 1-.218.042h-.013a1.205 1.205 0 0 1-.093-.023 2.993 2.993 0 0 1-.916-.461c-.231-.167-.592-.04-.726.19-.157.267-.04.549.19.72.022.014.041.029.062.046l.022.014c.014.013.044.034.049.038.146.118.293.236.43.362.088.083.222.177.247.3.028.132-.047.275-.127.379-.34.44-1.105.037-1.5-.169-.61-.318-1.1.53-.535.91l.04.027.06.049c.106.09.218.19.301.303.077.103.115.14.066.261a.404.404 0 0 1-.208.227c-.195.089-.493-.054-.692-.153-.296-.148-.576-.314-.882-.443-.614-.259-1.285-.442-1.841-.819-.287-.194-.538-.528-.788-.787-1.447-1.479-2.974-2.919-4.603-4.2-.306-.24-.618-.486-.954-.69l.383-.604c.885-1.399 1.771-2.795 2.657-4.193l.261-.413c.404.23.81.453 1.22.668.469.246.944.482 1.433.69.408.173.835.36 1.285.39.711.046 1.408-.324 2.06-.547.5-.171 1.028-.141 1.58.1.74.325 1.239 1.024 1.874 1.502.344.26.713.472 1.121.617.372.133.763.15 1.151.183.238.021.589.068.672.314l-.007.002Zm7.209-14.157c-.017-.036-.053-.044 0 0Zm-4.454-4.378c.132.09.008.036-.051-.038l.05.038Zm-7.687-5.827c.094-.137.043-.004-.038.053l.038-.053Zm-.932 1.283c.134-.184.268-.367.401-.552l.376-.516.572.409 1.93 1.38c1.47 1.052 2.94 2.102 4.408 3.155l.713.51v.004c-.136.183-.27.367-.403.552l-.376.516-2.543-1.82c-1.455-1.042-2.912-2.082-4.367-3.125-.238-.17-.475-.339-.711-.51v-.003Zm7.835 5.597v.013l-.019-.013h.02Zm-8.005-5.713a16.767 16.767 0 0 0-.051-.038c-.132-.09-.009-.036.05.038Zm-4.739-3.69c.09-.025.117-.04.232.03.064.038.123.088.183.13.424.304.85.609 1.276.912l2.561 1.832a10.68 10.68 0 0 0-.386.55c-.242.37-.134.798.215 1.055l.104.074.68.486 2.554 1.828 4.656 3.331c.038.036.08.07.136.097a.428.428 0 0 0 .204.074c.348.086.646-.07.873-.377l.312-.43 3.594 2.572c.263.189.541.366.794.568 0 0 .005.01.005.017.017.093.042.111-.032.23-.007.01-.017.02-.024.033-.06.087-.123.169-.184.253l-2.246 3.085c-1.287 1.769-2.574 3.535-3.86 5.304-.876 1.203-1.751 2.403-2.624 3.605-.414-.193-.782-.482-1.134-.814-.336-.316-.644-.645-1.039-.891a3.56 3.56 0 0 0-1.104-.453 3.272 3.272 0 0 0-1.041-.076c-.367.038-.697.167-1.039.297-.38.145-.78.303-1.19.343-.037.005-.078 0-.116.007h-.008c-.088-.023-.179-.038-.266-.066a4.437 4.437 0 0 1-.282-.094c-.06-.021-.117-.044-.177-.068-.023-.008-.044-.019-.068-.027-.008-.004-.012-.004-.012-.006l-.024-.01a17.185 17.185 0 0 1-.773-.359 34.177 34.177 0 0 1-1.996-1.07.66.66 0 0 0-.217-.265 84830.47 84830.47 0 0 0-8.092-5.915l-.771-.562c.325-.798.65-1.599.972-2.397 1.3-1.788 2.602-3.573 3.902-5.361 1.207-1.655 2.41-3.313 3.615-4.968.595-.815 1.192-1.63 1.782-2.447l.015-.019c.015-.014.034-.035.04-.035v-.003Zm.646-9.23c-.166-.1-.384-.126-.546-.012l-1.637 1.141-1.088.758c-.202.142-.448.278-.618.462-.38.412-.357 1.128-.21 1.636.057.202.227.366.359.528.541.653 1.08 1.308 1.622 1.96.447.538.89 1.077 1.336 1.614a.36.36 0 0 0 .092.078c-.35.05-.678.255-.903.556-.178.242-.355.486-.53.728-.931 1.276-1.86 2.555-2.79 3.83l-3.443 4.733c.357-.88.714-1.76 1.073-2.639.18-.446.361-.89.544-1.337.106-.263-.117-.58-.372-.649a.479.479 0 0 0-.091-.015c-.26-.025-.466.146-.561.384l-1.472 3.624c-.784 1.929-1.565 3.856-2.35 5.785-.18.446-.36.89-.543 1.337-.093.23.068.465.244.593l3.129 2.287 4.964 3.629c.233.17.467.34.703.514-.47.739-.937 1.478-1.406 2.217-.886 1.398-1.772 2.794-2.657 4.193l-.31.488c-.534-.347-1.065-.697-1.596-1.046a710.66 710.66 0 0 1-4.46-2.96 222.914 222.914 0 0 1-4.477-3.055 61.69 61.69 0 0 1-1.198-.863l-.145-.107-.061-.047-.007-.004c-.471-.37-.904-.787-1.359-1.18a7.183 7.183 0 0 1-.542-.505 2.056 2.056 0 0 1-.386-.53 1.81 1.81 0 0 1-.166-.556 2.61 2.61 0 0 1 .077-.85c.12-.49.316-.965.488-1.437.54-1.493 1.09-2.982 1.634-4.473.737-2.021 1.47-4.043 2.187-6.07a243.326 243.326 0 0 0 2.029-5.922c.257-.79.507-1.584.739-2.38.2-.69.327-1.415.563-2.093.45-1.293 1.486-2.38 2.619-3.125a33.706 33.706 0 0 1 3.816-2.15 38.771 38.771 0 0 1 1.912-.855l-.013.13.593 2.426c.063.264.13.527.193.79.161.66 1.185.38 1.024-.28-.313-1.274-.623-2.548-.935-3.822a81.383 81.383 0 0 0-.083-.339c.402-.773.801-1.546 1.203-2.316a.505.505 0 0 0 .031-.422c1.487 1.717 2.715 3.622 3.777 5.625l.004-.006Zm12.075-14.138c-.013.03-.013.032 0 0Z" fill="#333"/><path d="M19.483 17.196a.503.503 0 0 0 .068-.223 1.85 1.85 0 0 0-.236.391.53.53 0 0 0 .168-.168ZM62.961 33.387s-.015-.007-.023-.009c.131-.434.061-.886-.385-1.221-.486-.362-1.1-.335-1.63-.097-.232.103-.468.257-.698.381-.089-.137-.2-.257-.333-.341-.359-.227-.786-.255-1.196-.192-.648.101-1.219.445-1.771.775-1.111.67-2.24 1.306-3.36 1.96.053-.19.1-.385.13-.583.086-.56.084-1.191-.321-1.638-.419-.461-1.169-.695-1.74-.379-.525.29-.86.845-1 1.409-.117.467-.28.941-.478 1.364a3.692 3.692 0 0 1-.253.457c-.026.04-.053.078-.08.116-.007.009-.01.013-.013.02l-.005.003c-.06.074-.123.146-.189.217-.68.727-1.51 1.279-2.08 2.108-.751 1.102-.963 2.428-.766 3.723l-.881 3.504a.488.488 0 0 0 .114.47l.317-.986-.317.986c.253.27.793.274.91-.19l.524-2.082.312-1.243c.024-.09.05-.18.068-.271.03-.141.009-.255-.015-.394a4.575 4.575 0 0 1-.055-.703c0-.706.176-1.399.533-2.012.357-.612.873-1.042 1.398-1.503.406-.356.81-.748 1.113-1.194.363-.537.612-1.207.792-1.826.09-.305.117-.59.32-.836.1-.12.218-.257.379-.23a.679.679 0 0 1 .316.199c-.004 0 .022.046.026.046l.021.065a.653.653 0 0 1 .03.213c.004.185-.017.366-.055.547a7.206 7.206 0 0 1-.491 1.44l-.006.02c-.398.238-.79.486-1.156.764-.227.173-.348.453-.191.72.132.221.497.363.726.19.548-.417 1.162-.756 1.753-1.11.637-.379 1.278-.754 1.92-1.124.575-.335 1.15-.666 1.724-1.003.402-.236.795-.497 1.211-.707.295-.15.63-.293.969-.287.065 0 .095.005.146.02-1.27.698-2.542 1.393-3.812 2.093-.597.33-.062 1.24.535.91 1.423-.786 2.85-1.561 4.271-2.347.017-.008.028-.019.043-.03.263-.094.511-.243.754-.378.242-.135.463-.306.739-.26a.505.505 0 0 1 .193.085c0 .053-.036.112-.085.194a1.393 1.393 0 0 1-.233.29c-1.311.643-2.59 1.363-3.883 2.043-.196.103-.391.206-.586.307-.604.318-.068 1.226.535.91l4.052-2.129.345-.183a.578.578 0 0 0 .118-.061.454.454 0 0 0 .056-.03l.017-.012a.089.089 0 0 1 .019-.01l.064-.02h-.022l-.034.015a.12.12 0 0 1 .032-.015h-.006.042a.125.125 0 0 1 .03-.006c-.015 0-.026-.002-.023-.004.006-.004.017 0 .031.002h.003-.005s-.017.006-.03.008l.03-.002h.02c.008.004.019.009.025.01l.013.007c.01.006.019.013.03.017.023.023.063.06.07.07.006.006.019.023.03.033v.004H62.6l.004.007c.005.014.007.027.013.04v.025a2.156 2.156 0 0 0-.015.04c-.034.05-.057.111-.091.16l-.007.01c-.016.02-.033.043-.05.062a2.034 2.034 0 0 1-.151.151 2.083 2.083 0 0 1-.162.14c-.017.012-.038.029-.048.035-.132.093-.268.177-.391.282a.76.76 0 0 0-.128.145 1.597 1.597 0 0 0-.6-.113c-1.065.019-1.92.859-2.779 1.381-.65.396-1.332.735-1.994 1.11-1.188-.213-2.464-.047-3.62.223-1.242.289-2.646.76-3.54 1.71-.465.495.282 1.24.752.745.208-.22.342-.324.577-.473.232-.148.478-.276.729-.39.56-.257 1.164-.436 1.767-.577.61-.141 1.228-.236 1.852-.265a7.53 7.53 0 0 1 .843.004c.279.017.417.036.712.11a.5.5 0 0 0 .573-.238c.74-.413 1.493-.794 2.207-1.25.495-.317.975-.749 1.534-.951.182-.065.327-.103.51-.082.004.004.07.02.095.027.013.004.027.01.032.013.019.01.078.053.089.059l.034.03c-.045.2-.438.422-.599.549l-.786.606-.822.63a1298.265 1298.265 0 0 1-4.864 3.68l-1.064.803c-.08.061-.183.122-.253.192-.144.143-.157.339-.193.526l-.677 3.538c-.053.28.078.569.371.649a.56.56 0 0 0 .336-.023c.155-.06.287-.18.319-.346l.705-3.677a1427.06 1427.06 0 0 0 4.163-3.142c1.026-.779 2.051-1.558 3.073-2.343.416-.32.96-.638 1.206-1.112.158-.301.168-.592.083-.845a.732.732 0 0 0 .104-.134l.007-.013.082-.055a3.815 3.815 0 0 0 .597-.478c.296-.297.523-.657.555-1.08.034-.472-.313-.958-.73-1.158l.001-.004Zm-.994-.356.007.01s0-.004-.007-.01Zm.531 1.299Zm.132.137c-.004-.015-.007-.025 0-.023l.002.025v-.004l-.002.002Zm.006.032v-.005.005Zm0-.015v-.005.007-.002Z" fill="#333"/></g></g><defs><clipPath id="a"><path fill="#fff" d="M0 0h64v59H0z"/></clipPath><clipPath id="b"><path fill="#fff" transform="translate(0 3.324)" d="M0 0h63.696v147.421H0z"/></clipPath></defs></svg>